<?xml version="1.0" encoding="UTF-8"?>
<svg width="871px" height="555px" viewBox="0 0 871 555" version="1.1" xmlns="http://www.w3.org/2000/svg" xmlns:xlink="http://www.w3.org/1999/xlink">
    <!-- Generator: Sketch 46.2 (44496) - http://www.bohemiancoding.com/sketch -->
    <title>Group</title>
    <desc>Created with Sketch.</desc>
    <defs></defs>
    <g id="Page-1" stroke="none" stroke-width="1" fill="none" fill-rule="evenodd">
        <g id="Group">
            <g id="Group-2" transform="translate(0.000000, 79.000000)">
                <polygon id="Fill-229" fill="#4185BA" points="25.5794393 6.08949416 31.6697819 6.08949416 31.6697819 0 25.5794393 0"></polygon>
                <polygon id="Fill-230" fill="#4185BA" points="38.9781931 6.08949416 45.0685358 6.08949416 45.0685358 0 38.9781931 0"></polygon>
                <polygon id="Fill-231" fill="#4185BA" points="52.376947 6.08949416 58.4672897 6.08949416 58.4672897 0 52.376947 0"></polygon>
                <polygon id="Fill-232" fill="#4185BA" points="64.5576324 6.08949416 70.6479751 6.08949416 70.6479751 0 64.5576324 0"></polygon>
                <polygon id="Fill-233" fill="#4185BA" points="319.133956 313 325.224299 313 325.224299 306.910506 319.133956 306.910506"></polygon>
                <polygon id="Fill-234" fill="#4185BA" points="332.53271 313 338.623053 313 338.623053 306.910506 332.53271 306.910506"></polygon>
                <polygon id="Fill-235" fill="#4185BA" points="345.931464 313 352.021807 313 352.021807 306.910506 345.931464 306.910506"></polygon>
                <polygon id="Fill-236" fill="#4185BA" points="358.11215 313 364.202492 313 364.202492 306.910506 358.11215 306.910506"></polygon>
                <polyline id="Fill-237" fill="#2474D9" points="364.202492 299.603113 45.0685358 299.603113 45.0685358 293.078655 357.689554 293.078655 357.689554 25.5758755 364.202492 25.5758755 364.202492 299.603113"></polyline>
                <path d="M25.5794393,287.424125 L352.021807,287.424125 L352.021807,13.3968872 L25.5794393,13.3968872 L25.5794393,287.424125 Z M32.1082866,280.899666 L345.49296,280.899666 L345.49296,32.9702613 L32.1082866,32.9702613 L32.1082866,280.899666 Z M32.1082866,26.4458032 L345.49296,26.4458032 L345.49296,19.9213452 L32.1082866,19.9213452 L32.1082866,26.4458032 Z" id="Fill-238" fill="#2474D9"></path>
                <path d="M0,287.424125 L19.4890966,287.424125 L19.4890966,267.937743 L0,267.937743 L0,287.424125 Z M6.49636552,280.928664 L12.992731,280.928664 L12.992731,274.433204 L6.49636552,274.433204 L6.49636552,280.928664 Z" id="Fill-239" fill="#BDBCBC"></path>
                <path d="M371.510903,45.0622568 L391,45.0622568 L391,25.5758755 L371.510903,25.5758755 L371.510903,45.0622568 Z M378.007269,38.5667964 L384.503634,38.5667964 L384.503634,32.0713359 L378.007269,32.0713359 L378.007269,38.5667964 Z" id="Fill-240" fill="#BDBCBC"></path>
                <polyline id="Fill-241" fill="#2474D9" points="12.992731 260.63035 6.49636552 260.63035 6.49636552 254.13489 0 254.13489 0 247.639429 6.49636552 247.639429 6.49636552 241.143969 12.992731 241.143969 12.992731 247.639429 19.4890966 247.639429 19.4890966 254.13489 12.992731 254.13489 12.992731 260.63035"></polyline>
                <polyline id="Fill-242" fill="#4185BA" points="384.503634 71.8560311 378.007269 71.8560311 378.007269 65.3605707 371.510903 65.3605707 371.510903 58.8651102 378.007269 58.8651102 378.007269 52.3696498 384.503634 52.3696498 384.503634 58.8651102 391 58.8651102 391 65.3605707 384.503634 65.3605707 384.503634 71.8560311"></polyline>
                <polyline id="Fill-243" fill="#4185BA" points="143.732087 260.63035 52.376947 260.63035 52.376947 169.287938 65.4276814 169.287938 65.4276814 175.812396 58.9023142 175.812396 58.9023142 254.105892 137.20672 254.105892 137.20672 247.581434 143.732087 247.581434 143.732087 260.63035"></polyline>
                <polyline id="Fill-244" fill="#4185BA" points="65.7757009 161.980545 52.376947 161.980545 52.376947 116.918288 65.7757009 116.918288 65.7757009 123.355753 59.076324 123.355753 59.076324 155.543079 65.7757009 155.543079 65.7757009 161.980545"></polyline>
                <polyline id="Fill-245" fill="#4185BA" points="194.890966 260.63035 149.82243 260.63035 149.82243 247.233463 156.260792 247.233463 156.260792 253.931907 188.452603 253.931907 188.452603 247.233463 194.890966 247.233463 194.890966 260.63035"></polyline>
                <polyline id="Fill-246" fill="#4185BA" points="65.7757009 110.828794 52.376947 110.828794 52.376947 65.766537 65.7757009 65.766537 65.7757009 72.2040022 59.076324 72.2040022 59.076324 104.391329 65.7757009 104.391329 65.7757009 110.828794"></polyline>
                <path d="M208.28972,248.451362 L195.223166,248.451362 L195.223166,170.018677 L149.490229,170.018677 L149.490229,248.451362 L142.956953,248.451362 L142.956953,170.018677 L64.5576324,170.018677 L64.5576324,163.48262 L103.757293,163.48262 L103.757293,117.73022 L64.5576324,117.73022 L64.5576324,111.194163 L195.223166,111.194163 L195.223166,65.4417639 L64.5576324,65.4417639 L64.5576324,52.3696498 L208.28972,52.3696498 L208.28972,248.451362 L208.28972,248.451362 Z M110.290569,163.48262 L195.223166,163.48262 L195.223166,117.73022 L110.290569,117.73022 L110.290569,163.48262 Z M64.5576324,248.451362 L136.423676,248.451362 L136.423676,176.554734 L64.5576324,176.554734 L64.5576324,248.451362 Z M64.5576324,156.946563 L97.2240159,156.946563 L97.2240159,124.266278 L64.5576324,124.266278 L64.5576324,156.946563 Z" id="Fill-247" fill="#FFE207"></path>
                <polyline id="Fill-248" fill="#13773E" points="142.514019 247.233463 136.017653 247.233463 136.017653 175.783398 64.5576324 175.783398 64.5576324 169.287938 142.514019 169.287938 142.514019 247.233463"></polyline>
                <polyline id="Fill-249" fill="#13773E" points="103.535826 161.980545 64.5576324 161.980545 64.5576324 155.543079 97.03946 155.543079 97.03946 123.355753 64.5576324 123.355753 64.5576324 116.918288 103.535826 116.918288 103.535826 161.980545"></polyline>
                <path d="M156.13424,248.451362 L188.800623,248.451362 L188.800623,176.531231 L156.13424,176.531231 L156.13424,248.451362 Z M116.934579,156.91665 L188.800623,156.91665 L188.800623,124.225681 L116.934579,124.225681 L116.934579,156.91665 Z" id="Fill-250" fill="#FFE207"></path>
                <path d="M110.844237,161.980545 L196.109034,161.980545 L196.109034,116.918288 L110.844237,116.918288 L110.844237,161.980545 Z M117.403067,155.543079 L189.550204,155.543079 L189.550204,123.355753 L117.403067,123.355753 L117.403067,155.543079 Z" id="Fill-251" fill="#13773E"></path>
                <polyline id="Fill-252" fill="#13773E" points="194.890966 247.233463 188.452603 247.233463 188.452603 175.783398 156.260792 175.783398 156.260792 247.233463 149.82243 247.233463 149.82243 169.287938 194.890966 169.287938 194.890966 247.233463"></polyline>
                <polygon id="Fill-253" fill="#FFE207" points="64.5576324 104.7393 188.800623 104.7393 188.800623 71.8560311 64.5576324 71.8560311"></polygon>
                <polyline id="Fill-254" fill="#13773E" points="194.890966 110.828794 64.5576324 110.828794 64.5576324 104.391329 188.374299 104.391329 188.374299 72.2040022 64.5576324 72.2040022 64.5576324 65.766537 194.890966 65.766537 194.890966 110.828794"></polyline>
                <polygon id="Fill-255" fill="#2474D9" points="227.778816 58.459144 325.224299 58.459144 325.224299 52.3696498 227.778816 52.3696498"></polygon>
                <polygon id="Fill-256" fill="#2474D9" points="227.778816 71.8560311 325.224299 71.8560311 325.224299 65.766537 227.778816 65.766537"></polygon>
                <polygon id="Fill-257" fill="#2474D9" points="227.778816 84.0350195 325.224299 84.0350195 325.224299 77.9455253 227.778816 77.9455253"></polygon>
                <polygon id="Fill-258" fill="#2474D9" points="227.778816 97.4319066 325.224299 97.4319066 325.224299 91.3424125 227.778816 91.3424125"></polygon>
                <polygon id="Fill-259" fill="#2474D9" points="227.778816 110.828794 325.224299 110.828794 325.224299 104.7393 227.778816 104.7393"></polygon>
                <path d="M227.778816,260.63035 L325.224299,260.63035 L325.224299,130.315175 L227.778816,130.315175 L227.778816,260.63035 Z M234.275182,254.114591 L318.727934,254.114591 L318.727934,136.830934 L234.275182,136.830934 L234.275182,254.114591 Z" id="Fill-260" fill="#BDBCBC"></path>
                <polygon id="Fill-261" fill="#EEEDEC" points="235.087227 253.322957 320.352025 253.322957 320.352025 136.404669 235.087227 136.404669"></polygon>
                <polyline id="Fill-262" fill="#2474D9" points="287.464174 189.992218 254.576324 189.992218 254.576324 176.838911 261.153894 176.838911 261.153894 183.415564 280.886604 183.415564 280.886604 163.685603 274.309034 163.685603 274.309034 157.108949 287.464174 157.108949 287.464174 189.992218"></polyline>
                <path d="M260.91028,176.595331 L274.065421,176.595331 L274.065421,163.442023 L260.91028,163.442023 L260.91028,176.595331 Z M254.33271,176.595331 L241.17757,176.595331 L241.17757,143.712062 L274.065421,143.712062 L274.065421,156.86537 L254.33271,156.86537 L254.33271,176.595331 L254.33271,176.595331 Z" id="Fill-263" fill="#FFE207"></path>
                <polyline id="Fill-264" fill="#13773E" points="261.07269 176.595331 254.576324 176.595331 254.576324 157.108949 274.065421 157.108949 274.065421 163.60441 261.07269 163.60441 261.07269 176.595331"></polyline>
                <polygon id="Fill-265" fill="#2474D9" points="241.17757 247.233463 286.246106 247.233463 286.246106 241.143969 241.17757 241.143969"></polygon>
                <polygon id="Fill-266" fill="#2474D9" points="305.735202 247.233463 311.825545 247.233463 311.825545 241.143969 305.735202 241.143969"></polygon>
                <polygon id="Fill-267" fill="#2474D9" points="305.735202 149.801556 311.825545 149.801556 311.825545 143.712062 305.735202 143.712062"></polygon>
            </g>
            <g id="Group-3" transform="translate(125.000000, 0.000000)">
                <path d="M648.48366,379.736842 L560.718954,379.736842 L560.718954,267.764375 L609.477124,267.764375 L609.477124,219.07773 L634.782614,219.07773 L633.783072,213.374375 C633.393007,211.160461 627.932092,179.894243 622.788105,151.444408 C625.616078,151.09875 628.49281,150.921053 631.418301,150.921053 C661.465523,150.921053 688.306895,169.945625 698.192614,198.260362 L698.338889,198.745987 L716.745098,287.236842 L692.366013,287.236842 L692.366013,321.314572 L648.48366,321.314572 L648.48366,379.736842 M599.72549,258.026316 L560.718954,258.026316 L560.718954,221.511941 C560.718954,188.872829 583.025817,161.335822 613.207124,153.294408 C617.156536,175.168224 621.31317,198.754507 623.17817,209.342105 L599.72549,209.342105 L599.72549,258.026316" id="Fill-4393" fill="#FFE207"></path>
                <path d="M550.96732,399.209309 L541.215686,399.209309 L541.215686,258.026316 L560.718954,258.026316 L560.718954,267.764375 L550.96732,267.764375 L550.96732,399.209309 M443.699346,282.368421 L433.947712,282.368421 L433.947712,136.315789 C433.947712,85.3105592 475.501863,43.8145724 526.588235,43.8145724 C565.960458,43.8145724 601.127288,68.7433224 614.084771,105.845559 L614.231046,106.333618 C615.584085,112.088092 619.094673,131.039638 622.788105,151.444408 C619.521307,151.842401 616.327647,152.466776 613.207124,153.294408 C609.58683,133.257204 606.13719,114.656184 604.79634,108.806776 C593.130948,75.7489803 561.730686,53.5526316 526.588235,53.5526316 C480.877451,53.5526316 443.699346,90.6804276 443.699346,136.315789 L443.699346,282.368421" id="Fill-4394" fill="#2474D9"></path>
                <path d="M609.477124,267.764375 L560.718954,267.764375 L560.718954,258.026316 L599.72549,258.026316 L599.72549,209.342105 L623.17817,209.342105 C621.31317,198.754507 617.156536,175.168224 613.207124,153.294408 C616.327647,152.466776 619.521307,151.842401 622.788105,151.444408 C627.932092,179.894243 633.393007,211.160461 633.783072,213.374375 L634.782614,219.07773 L609.477124,219.07773 L609.477124,267.764375" id="Fill-4395" fill="#13783E"></path>
                <polygon id="Fill-4396" fill="#FFFFFE" points="667.986928 258.026316 677.738562 258.026316 677.738562 248.289474 667.986928 248.289474"></polygon>
                <polygon id="Fill-4397" fill="#FFFFFE" points="653.359477 238.552632 677.738562 238.552632 677.738562 228.815789 653.359477 228.815789"></polygon>
                <polygon id="Fill-4398" fill="#4185BA" points="565.594771 155.789474 575.346405 155.789474 575.346405 146.051414 565.594771 146.051414"></polygon>
                <polygon id="Fill-4399" fill="#4185BA" points="550.96732 136.315789 575.346405 136.315789 575.346405 126.578947 550.96732 126.578947"></polygon>
                <polyline id="Fill-4400" fill="#4A8FC0" points="390.065359 365.132796 375.437908 365.132796 375.437908 374.868421 390.065359 374.868421 390.065359 408.947368 399.816993 408.947368 399.816993 331.052632 390.065359 331.052632 390.065359 365.132796"></polyline>
                <polygon id="Fill-4401" fill="#4A8FC0" points="419.320261 374.868421 448.575163 374.868421 448.575163 365.132796 419.320261 365.132796"></polygon>
                <polyline id="Fill-4402" fill="#4A8FC0" points="492.457516 365.132796 477.830065 365.132796 477.830065 331.052632 468.078431 331.052632 468.078431 408.947368 477.830065 408.947368 477.830065 374.868421 492.457516 374.868421 492.457516 365.132796"></polyline>
                <polyline id="Fill-4403" fill="#4A8FC0" points="443.699346 311.578947 414.444444 311.578947 414.444444 331.052632 424.196078 331.052632 424.196078 321.314572 443.699346 321.314572 443.699346 331.052632 453.45098 331.052632 453.45098 311.578947 443.699346 311.578947"></polyline>
                <path d="M492.457516,408.947368 L375.437908,408.947368 L375.437908,374.868421 L390.065359,374.868421 L390.065359,408.947368 L399.816993,408.947368 L399.816993,331.052632 L468.078431,331.052632 L468.078431,408.947368 L477.830065,408.947368 L477.830065,374.868421 L492.457516,374.868421 L492.457516,365.132796 L477.830065,365.132796 L477.830065,331.052632 L492.457516,331.052632 L492.457516,408.947368 L492.457516,408.947368 Z M419.320261,374.868421 L448.575163,374.868421 L448.575163,365.132796 L419.320261,365.132796 L419.320261,374.868421 Z M375.437908,365.132796 L390.065359,365.132796 L390.065359,331.052632 L375.437908,331.052632 L375.437908,365.132796 Z" id="Fill-4404" fill="#FFE207"></path>
                <polyline id="Fill-4405" fill="#2474D9" points="399.816993 408.947368 390.065359 408.947368 390.065359 374.868421 375.437908 374.868421 375.437908 365.132796 390.065359 365.132796 390.065359 331.052632 399.816993 331.052632 399.816993 408.947368"></polyline>
                <polygon id="Fill-4406" fill="#2474D9" points="419.320261 374.868421 448.575163 374.868421 448.575163 365.132796 419.320261 365.132796"></polygon>
                <polyline id="Fill-4407" fill="#2474D9" points="477.830065 408.947368 468.078431 408.947368 468.078431 331.052632 477.830065 331.052632 477.830065 365.132796 492.457516 365.132796 492.457516 374.868421 477.830065 374.868421 477.830065 408.947368"></polyline>
                <path d="M292.54902,185 L292.54902,194.735625 L263.294118,194.735625 L263.294118,185 L273.045752,185 L273.045752,150.921053 L282.797386,150.921053 L282.797386,185 L292.54902,185 L292.54902,185 Z M263.294118,214.211743 L292.54902,214.211743 L292.54902,204.473684 L263.294118,204.473684 L263.294118,214.211743 Z M258.418301,141.185428 C255.724412,141.185428 253.542484,138.999507 253.542484,136.315789 C253.542484,133.633289 255.724412,131.447368 258.418301,131.447368 C261.11219,131.447368 263.294118,133.633289 263.294118,136.315789 L263.294118,141.185428 L258.418301,141.185428 L258.418301,141.185428 Z M292.54902,136.315789 C292.54902,133.633289 294.743137,131.447368 297.424837,131.447368 C300.106536,131.447368 302.300654,133.633289 302.300654,136.315789 C302.300654,138.999507 300.106536,141.185428 297.424837,141.185428 L292.54902,141.185428 L292.54902,136.315789 L292.54902,136.315789 Z M297.424837,150.921053 C305.494314,150.921053 312.052288,144.369375 312.052288,136.315789 C312.052288,128.262204 305.494314,121.709309 297.424837,121.709309 C289.355359,121.709309 282.797386,128.262204 282.797386,136.315789 L282.797386,141.185428 L273.045752,141.185428 L273.045752,136.315789 C273.045752,128.262204 266.487778,121.709309 258.418301,121.709309 C250.348824,121.709309 243.79085,128.262204 243.79085,136.315789 C243.79085,144.369375 250.348824,150.921053 258.418301,150.921053 L263.294118,150.921053 L263.294118,175.263158 L253.542484,175.263158 L253.542484,194.735625 L248.666667,194.735625 L248.666667,204.473684 L253.542484,204.473684 L253.542484,223.947368 L263.294118,223.947368 L263.294118,233.684211 L292.54902,233.684211 L292.54902,223.947368 L302.300654,223.947368 L302.300654,204.473684 L307.176471,204.473684 L307.176471,194.735625 L302.300654,194.735625 L302.300654,175.263158 L292.54902,175.263158 L292.54902,150.921053 L297.424837,150.921053 L297.424837,150.921053 Z" id="Fill-4408" fill="#2474D9"></path>
                <path d="M277.921569,185 C276.27598,185 274.654771,184.919671 273.045752,184.76023 L273.045752,150.921053 L282.797386,150.921053 L282.797386,184.76023 C281.200556,184.919671 279.567157,185 277.921569,185 M253.542484,178.48727 C238.963791,170.06977 229.163399,154.337467 229.163399,136.315789 C229.163399,109.428717 250.994869,87.6327961 277.921569,87.6327961 C304.848268,87.6327961 326.679739,109.428717 326.679739,136.315789 C326.679739,154.337467 316.879346,170.06977 302.300654,178.48727 L302.300654,175.263158 L292.54902,175.263158 L292.54902,150.921053 L297.424837,150.921053 C305.494314,150.921053 312.052288,144.369375 312.052288,136.315789 C312.052288,128.262204 305.494314,121.709309 297.424837,121.709309 C289.355359,121.709309 282.797386,128.262204 282.797386,136.315789 L282.797386,141.185428 L273.045752,141.185428 L273.045752,136.315789 C273.045752,128.262204 266.487778,121.709309 258.418301,121.709309 C250.348824,121.709309 243.79085,128.262204 243.79085,136.315789 C243.79085,144.369375 250.348824,150.921053 258.418301,150.921053 L263.294118,150.921053 L263.294118,175.263158 L253.542484,175.263158 L253.542484,178.48727 M297.424837,141.185428 L292.54902,141.185428 L292.54902,136.315789 C292.54902,133.633289 294.743137,131.447368 297.424837,131.447368 C300.106536,131.447368 302.300654,133.633289 302.300654,136.315789 C302.300654,138.999507 300.106536,141.185428 297.424837,141.185428 M263.294118,141.185428 L258.418301,141.185428 C255.724412,141.185428 253.542484,138.999507 253.542484,136.315789 C253.542484,133.633289 255.724412,131.447368 258.418301,131.447368 C261.11219,131.447368 263.294118,133.633289 263.294118,136.315789 L263.294118,141.185428" id="Fill-4409" fill="#FFE207"></path>
                <path d="M273.045752,184.76023 C266.000196,184.061612 259.381275,181.861086 253.542484,178.48727 L253.542484,175.263158 L263.294118,175.263158 L263.294118,150.921053 L258.418301,150.921053 C250.348824,150.921053 243.79085,144.369375 243.79085,136.315789 C243.79085,128.262204 250.348824,121.709309 258.418301,121.709309 C266.487778,121.709309 273.045752,128.262204 273.045752,136.315789 L273.045752,141.185428 L282.797386,141.185428 L282.797386,136.315789 C282.797386,128.262204 289.355359,121.709309 297.424837,121.709309 C305.494314,121.709309 312.052288,128.262204 312.052288,136.315789 C312.052288,144.369375 305.494314,150.921053 297.424837,150.921053 L292.54902,150.921053 L292.54902,175.263158 L302.300654,175.263158 L302.300654,178.48727 C296.461863,181.861086 289.855131,184.061612 282.797386,184.76023 L282.797386,150.921053 L273.045752,150.921053 L273.045752,184.76023 M297.424837,131.447368 C294.743137,131.447368 292.54902,133.633289 292.54902,136.315789 L292.54902,141.185428 L297.424837,141.185428 C300.106536,141.185428 302.300654,138.999507 302.300654,136.315789 C302.300654,133.633289 300.106536,131.447368 297.424837,131.447368 M258.418301,131.447368 C255.724412,131.447368 253.542484,133.633289 253.542484,136.315789 C253.542484,138.999507 255.724412,141.185428 258.418301,141.185428 L263.294118,141.185428 L263.294118,136.315789 C263.294118,133.633289 261.11219,131.447368 258.418301,131.447368" id="Fill-4410" fill="#118242"></path>
                <polyline id="Fill-4411" fill="#BDBCBC" points="375.437908 301.842105 355.934641 301.842105 355.934641 68.1566776 375.437908 68.1566776 375.437908 282.368421 355.934641 282.368421 355.934641 292.10648 375.437908 292.10648 375.437908 301.842105"></polyline>
                <polyline id="Fill-4412" fill="#4185BA" points="370.562092 58.4210526 360.810458 58.4210526 365.686275 48.6842105 370.562092 58.4210526"></polyline>
                <polyline id="Fill-4413" fill="#FFFFFE" points="360.810458 58.4210526 355.934641 68.1578947 375.437908 68.1578947 370.562092 58.4210526 360.810458 58.4210526"></polyline>
                <polygon id="Fill-4414" fill="#2771AB" points="355.934641 292.10648 375.437908 292.10648 375.437908 282.368421 355.934641 282.368421"></polygon>
                <polyline id="Fill-4415" fill="#FFE207" points="404.69281 282.368421 385.189542 282.368421 385.189542 48.6842105 404.69281 48.6842105 404.69281 262.894737 385.189542 262.894737 385.189542 272.630362 404.69281 272.630362 404.69281 282.368421"></polyline>
                <polyline id="Fill-4416" fill="#4185BA" points="399.816993 38.9485855 390.065359 38.9485855 394.941176 29.2105263 399.816993 38.9485855"></polyline>
                <polyline id="Fill-4417" fill="#FFFFFE" points="390.065359 38.9473684 385.189542 48.6842105 404.69281 48.6842105 399.816993 38.9473684 390.065359 38.9473684"></polyline>
                <polygon id="Fill-4418" fill="#13783E" points="385.189542 272.630362 404.69281 272.630362 404.69281 262.894737 385.189542 262.894737"></polygon>
                <path d="M326.679739,438.157895 L151.150327,262.894737 L326.679739,262.894737 L326.679739,438.157895 M221.776536,292.10648 L297.424837,367.638816 L297.424837,292.10648 L221.776536,292.10648" id="Fill-4419" fill="#FFE207"></path>
                <polygon id="Fill-4420" fill="#BDBCBC" points="243.79085 253.157895 346.183007 253.157895 346.183007 243.419836 243.79085 243.419836"></polygon>
                <polygon id="Fill-4421" fill="#BDBCBC" points="336.431373 233.684211 346.183007 233.684211 346.183007 223.947368 336.431373 223.947368"></polygon>
                <polygon id="Fill-4422" fill="#BDBCBC" points="336.431373 214.211743 346.183007 214.211743 346.183007 204.473684 336.431373 204.473684"></polygon>
                <polygon id="Fill-4423" fill="#BDBCBC" points="336.431373 194.735625 346.183007 194.735625 346.183007 185 336.431373 185"></polygon>
                <polygon id="Fill-4424" fill="#BDBCBC" points="336.431373 175.263158 346.183007 175.263158 346.183007 68.1566776 336.431373 68.1566776"></polygon>
                <polygon id="Fill-4425" fill="#BDBCBC" points="316.928105 233.684211 326.679739 233.684211 326.679739 223.947368 316.928105 223.947368"></polygon>
                <polygon id="Fill-4426" fill="#BDBCBC" points="336.431373 301.842105 346.183007 301.842105 346.183007 262.894737 336.431373 262.894737"></polygon>
                <polygon id="Fill-4427" fill="#BDBCBC" points="336.431373 321.314572 346.183007 321.314572 346.183007 311.578947 336.431373 311.578947"></polygon>
                <polygon id="Fill-4428" fill="#BDBCBC" points="336.431373 340.790691 346.183007 340.790691 346.183007 331.052632 336.431373 331.052632"></polygon>
                <polygon id="Fill-4429" fill="#BDBCBC" points="336.431373 438.157895 346.183007 438.157895 346.183007 350.526316 336.431373 350.526316"></polygon>
                <polygon id="Fill-4430" fill="#BDBCBC" points="336.431373 457.631579 346.183007 457.631579 346.183007 447.89352 336.431373 447.89352"></polygon>
                <polygon id="Fill-4432" fill="#BDBCBC" points="355.934641 428.421053 365.686275 428.421053 365.686275 311.578947 355.934641 311.578947"></polygon>
                <polygon id="Fill-4433" fill="#BDBCBC" points="375.437908 428.421053 385.189542 428.421053 385.189542 418.685428 375.437908 418.685428"></polygon>
                <polygon id="Fill-4434" fill="#BDBCBC" points="394.941176 428.421053 404.69281 428.421053 404.69281 418.685428 394.941176 418.685428"></polygon>
                <polygon id="Fill-4435" fill="#BDBCBC" points="414.444444 301.842105 424.196078 301.842105 424.196078 107.105263 414.444444 107.105263"></polygon>
                <polygon id="Fill-4436" fill="#BDBCBC" points="414.444444 97.3684211 424.196078 97.3684211 424.196078 68.1566776 414.444444 68.1566776"></polygon>
                <polygon id="Fill-4437" fill="#BDBCBC" points="414.444444 58.4210526 424.196078 58.4210526 424.196078 48.6842105 414.444444 48.6842105"></polygon>
                <polygon id="Fill-4438" fill="#BDBCBC" points="414.444444 38.9485855 424.196078 38.9485855 424.196078 29.2105263 414.444444 29.2105263"></polygon>
                <polygon id="Fill-4439" fill="#BDBCBC" points="394.941176 321.314572 404.69281 321.314572 404.69281 292.10648 394.941176 292.10648"></polygon>
                <polygon id="Fill-4440" fill="#BDBCBC" points="375.437908 321.314572 385.189542 321.314572 385.189542 311.578947 375.437908 311.578947"></polygon>
                <polygon id="Fill-4441" fill="#BDBCBC" points="414.444444 428.421053 550.96732 428.421053 550.96732 418.685428 414.444444 418.685428"></polygon>
                <polygon id="Fill-4442" fill="#BDBCBC" points="560.718954 399.209309 648.48366 399.209309 648.48366 389.473684 560.718954 389.473684"></polygon>
                <polygon id="Fill-4443" fill="#BDBCBC" points="633.856209 136.315789 643.607843 136.315789 643.607843 68.1566776 633.856209 68.1566776"></polygon>
                <polygon id="Fill-4444" fill="#BDBCBC" points="653.359477 136.315789 746 136.315789 746 126.578947 653.359477 126.578947"></polygon>
                <polygon id="Fill-4445" fill="#BDBCBC" points="677.738562 155.789474 687.490196 155.789474 687.490196 146.051414 677.738562 146.051414"></polygon>
                <polygon id="Fill-4446" fill="#BDBCBC" points="697.24183 155.789474 706.993464 155.789474 706.993464 146.051414 697.24183 146.051414"></polygon>
                <polygon id="Fill-4447" fill="#BDBCBC" points="716.745098 155.789474 726.496732 155.789474 726.496732 146.051414 716.745098 146.051414"></polygon>
                <polygon id="Fill-4448" fill="#BDBCBC" points="716.745098 175.263158 726.496732 175.263158 726.496732 165.527533 716.745098 165.527533"></polygon>
                <polygon id="Fill-4449" fill="#BDBCBC" points="414.444444 19.4724671 424.196078 19.4724671 424.196078 9.73684211 414.444444 9.73684211"></polygon>
                <polygon id="Fill-4450" fill="#BDBCBC" points="560.718954 418.685428 570.470588 418.685428 570.470588 408.947368 560.718954 408.947368"></polygon>
                <polygon id="Fill-4451" fill="#BDBCBC" points="580.222222 418.685428 589.973856 418.685428 589.973856 408.947368 580.222222 408.947368"></polygon>
                <polygon id="Fill-4452" fill="#BDBCBC" points="599.72549 418.685428 609.477124 418.685428 609.477124 408.947368 599.72549 408.947368"></polygon>
                <polygon id="Fill-4453" fill="#BDBCBC" points="560.718954 438.157895 570.470588 438.157895 570.470588 428.421053 560.718954 428.421053"></polygon>
                <polygon id="Fill-4454" fill="#BDBCBC" points="229.163399 214.211743 238.915033 214.211743 238.915033 204.473684 229.163399 204.473684"></polygon>
                <polygon id="Fill-4455" fill="#BDBCBC" points="209.660131 214.211743 219.411765 214.211743 219.411765 204.473684 209.660131 204.473684"></polygon>
                <polygon id="Fill-4456" fill="#BDBCBC" points="653.359477 116.840888 663.111111 116.840888 663.111111 107.105263 653.359477 107.105263"></polygon>
                <polygon id="Fill-6159" fill="#2474D9" points="121.895425 555 746 555 746 545.263158 121.895425 545.263158"></polygon>
                <polyline id="Fill-6160" fill="#2474D9" points="746 467.368421 706.993464 467.368421 706.993464 457.631579 736.248366 457.631579 736.248366 428.421053 746 428.421053 746 467.368421"></polyline>
                <polyline id="Fill-6161" fill="#2474D9" points="9.75163399 38.9473684 0 38.9473684 0 0 39.0065359 0 39.0065359 9.73684211 9.75163399 9.73684211 9.75163399 38.9473684"></polyline>
                <polyline id="Fill-6162" fill="#2474D9" points="0 467.368421 39.0065359 467.368421 39.0065359 457.631579 9.75163399 457.631579 9.75163399 428.421053 0 428.421053 0 467.368421"></polyline>
                <polyline id="Fill-6163" fill="#2474D9" points="736.248366 38.9473684 746 38.9473684 746 0 706.993464 0 706.993464 9.73684211 736.248366 9.73684211 736.248366 38.9473684"></polyline>
            </g>
        </g>
    </g>
</svg>