<svg width="245px" height="45px" viewBox="0 0 245 45" xmlns="http://www.w3.org/2000/svg">
  <path d="M0.109375,9.21875 C0.109375,8.34374562 0.289060703,7.58073242 0.6484375,6.9296875 C1.0078143,6.27864258 1.51301758,5.72396063 2.1640625,5.265625 C2.81510742,4.80728937 3.59634961,4.42968898 4.5078125,4.1328125 C5.41927539,3.83593602 6.42186953,3.6041675 7.515625,3.4375 C8.60938047,3.2708325 9.78124375,3.15625031 11.03125,3.09375 C12.2812563,3.03124969 13.57291,3 14.90625,3 C16.7187591,3 18.6171776,3.07291594 20.6015625,3.21875 C22.5859474,3.36458406 24.6562392,3.63020641 26.8125,4.015625 C27.3125025,4.11979219 27.6640615,4.30729031 27.8671875,4.578125 C28.0703135,4.84895969 28.171875,5.15104 28.171875,5.484375 C28.171875,5.69270937 28.1250005,5.89583234 28.03125,6.09375 C27.9374995,6.29166766 27.8125008,6.4739575 27.65625,6.640625 C27.4999992,6.8072925 27.3177094,6.94010367 27.109375,7.0390625 C26.9010406,7.13802133 26.6822928,7.1875 26.453125,7.1875 C25.6510377,7.1875 24.8151085,7.14583375 23.9453125,7.0625 C23.0755165,6.97916625 22.1692755,6.88541719 21.2265625,6.78125 C20.2838495,6.67708281 19.312505,6.57291719 18.3125,6.46875 C17.312495,6.36458281 16.2812553,6.28645859 15.21875,6.234375 C15.0312491,7.4010475 14.7916681,8.65624328 14.5,10 C14.2083319,11.3437567 13.8880226,12.7161388 13.5390625,14.1171875 C13.1901024,15.5182362 12.8255227,16.9140555 12.4453125,18.3046875 C12.0651023,19.6953195 11.6979184,21.0234312 11.34375,22.2890625 C10.9895816,23.5546938 10.6588557,24.723953 10.3515625,25.796875 C10.0442693,26.869797 9.79166766,27.7916628 9.59375,28.5625 C9.51041625,28.9166684 9.38281336,29.242186 9.2109375,29.5390625 C9.03906164,29.835939 8.84635523,30.0937489 8.6328125,30.3125 C8.41926977,30.5312511 8.19791781,30.7005202 7.96875,30.8203125 C7.73958219,30.9401048 7.52604266,31 7.328125,31 C6.73437203,31 6.24479359,30.8593764 5.859375,30.578125 C5.47395641,30.2968736 5.28125,29.8437531 5.28125,29.21875 C5.28125,29.0208323 5.31249969,28.8020845 5.375,28.5625 C5.51041734,27.6145786 5.69010305,26.6822962 5.9140625,25.765625 C6.13802195,24.8489538 6.40104016,23.8932341 6.703125,22.8984375 C7.00520984,21.9036409 7.34895641,20.8489639 7.734375,19.734375 C8.11979359,18.6197861 8.54687266,17.3932359 9.015625,16.0546875 C9.48437734,14.7161391 9.99218477,13.2395914 10.5390625,11.625 C11.0859402,10.0104086 11.6770802,8.21355156 12.3125,6.234375 C11.7604139,6.27604187 11.2005237,6.32291641 10.6328125,6.375 C10.0651013,6.42708359 9.51302352,6.49739539 8.9765625,6.5859375 C8.44010148,6.67447961 7.94010648,6.78645766 7.4765625,6.921875 C7.01301852,7.05729234 6.60677258,7.22916563 6.2578125,7.4375 C5.90885242,7.64583437 5.63281352,7.89583187 5.4296875,8.1875 C5.22656148,8.47916813 5.125,8.82291469 5.125,9.21875 C5.125,9.23958344 5.1119793,9.35416563 5.0859375,9.5625 C5.0598957,9.77083437 4.96875078,9.99739461 4.8125,10.2421875 C4.65624922,10.4869804 4.40885586,10.7109365 4.0703125,10.9140625 C3.73176914,11.1171885 3.25000312,11.21875 2.625,11.21875 C1.99999688,11.21875 1.51562672,11.1145844 1.171875,10.90625 C0.828123281,10.6979156 0.578125781,10.4687512 0.421875,10.21875 C0.234374063,9.92708187 0.130208438,9.59375188 0.109375,9.21875 Z M22.578125,26.734375 C22.578125,26.2760394 22.6041664,25.7421905 22.65625,25.1328125 C22.7083336,24.5234345 22.7786454,23.8802117 22.8671875,23.203125 C22.9557296,22.5260383 23.0598952,21.835941 23.1796875,21.1328125 C23.2994798,20.429684 23.4531241,19.6796915 23.640625,18.8828125 C23.8281259,18.0859335 23.9895827,17.4218777 24.125,16.890625 C24.2604173,16.3593723 24.3958327,15.9218767 24.53125,15.578125 C24.6145838,15.3489572 24.6979162,15.1666673 24.78125,15.03125 C24.8645838,14.8958327 24.960937,14.7890629 25.0703125,14.7109375 C25.179688,14.6328121 25.3151034,14.5807293 25.4765625,14.5546875 C25.6380216,14.5286457 25.8385405,14.515625 26.078125,14.515625 C26.3489597,14.515625 26.5598951,14.5286457 26.7109375,14.5546875 C26.8619799,14.5807293 26.973958,14.6432287 27.046875,14.7421875 C27.119792,14.8411463 27.1640624,14.9843741 27.1796875,15.171875 C27.1953126,15.3593759 27.203125,15.6145817 27.203125,15.9375 C27.203125,16.3229186 27.1770836,16.8697881 27.125,17.578125 C27.0729164,18.2864619 27.0572916,18.9062473 27.078125,19.4375 L27.25,19.4375 C27.4583344,19.0208313 27.7187484,18.4739617 28.03125,17.796875 C28.3437516,17.1197883 28.6718733,16.5572939 29.015625,16.109375 C29.3593767,15.6614561 29.7499978,15.2838557 30.1875,14.9765625 C30.6250022,14.6692693 31.1302055,14.515625 31.703125,14.515625 C31.9010427,14.515625 32.0937491,14.5494788 32.28125,14.6171875 C32.4687509,14.6848962 32.6328118,14.7812494 32.7734375,14.90625 C32.9140632,15.0312506 33.0260412,15.1848949 33.109375,15.3671875 C33.1927088,15.5494801 33.234375,15.7552072 33.234375,15.984375 C33.234375,16.1614592 33.2083336,16.4088526 33.15625,16.7265625 C33.1041664,17.0442724 33.0208339,17.4583308 32.90625,17.96875 C32.7916661,18.4791692 32.7083336,18.8984359 32.65625,19.2265625 C32.6041664,19.5546891 32.578125,19.8281239 32.578125,20.046875 C32.578125,20.4218769 32.614583,20.7343738 32.6875,20.984375 C32.760417,21.2343762 32.8567702,21.4348951 32.9765625,21.5859375 C33.0963548,21.7369799 33.2317701,21.8437497 33.3828125,21.90625 C33.5338549,21.9687503 33.6927075,22 33.859375,22 C34.3281273,22 34.8124975,21.8958344 35.3125,21.6875 C35.8125025,21.4791656 36.2708313,21.244793 36.6875,20.984375 C37.1770858,20.6822902 37.6562477,20.3385436 38.125,19.953125 L37.890625,23.609375 C37.6197903,23.7864592 37.3125017,23.9843739 36.96875,24.203125 C36.6249983,24.4218761 36.2578145,24.6276032 35.8671875,24.8203125 C35.4765605,25.0130218 35.0703146,25.1744785 34.6484375,25.3046875 C34.2265604,25.4348965 33.7968772,25.5 33.359375,25.5 C32.5781211,25.5 31.9479191,25.3411474 31.46875,25.0234375 C30.9895809,24.7057276 30.6093764,24.2890651 30.328125,23.7734375 C30.0468736,23.2578099 29.8385423,22.6796907 29.703125,22.0390625 C29.5677077,21.3984343 29.4583338,20.7500033 29.375,20.09375 L29.125,20.09375 L26.328125,27.890625 C26.1822909,28.296877 26.0442715,28.6328112 25.9140625,28.8984375 C25.7838535,29.1640638 25.6510423,29.3802075 25.515625,29.546875 C25.3802077,29.7135425 25.2343758,29.8307288 25.078125,29.8984375 C24.9218742,29.9661462 24.7500009,30 24.5625,30 C24.1354145,30 23.791668,29.9088551 23.53125,29.7265625 C23.270832,29.5442699 23.0703132,29.2994807 22.9296875,28.9921875 C22.7890618,28.6848943 22.6953127,28.3359395 22.6484375,27.9453125 C22.6015623,27.5546855 22.578125,27.1510437 22.578125,26.734375 Z M45.546875,26.671875 C45.1718731,27.0156267 44.705732,27.3828105 44.1484375,27.7734375 C43.591143,28.1640645 42.9895866,28.5234359 42.34375,28.8515625 C41.6979134,29.1796891 41.0390659,29.4531239 40.3671875,29.671875 C39.6953091,29.8906261 39.0572947,30 38.453125,30 C37.9114556,30 37.455731,29.9244799 37.0859375,29.7734375 C36.716144,29.6223951 36.4166678,29.4114597 36.1875,29.140625 C35.9583322,28.8697903 35.7942713,28.5390645 35.6953125,28.1484375 C35.5963537,27.7578105 35.546875,27.3281273 35.546875,26.859375 C35.546875,26.2031217 35.6197909,25.4375044 35.765625,24.5625 C36.0572931,22.8749916 36.2447912,21.9270844 36.328125,21.71875 C36.4739591,21.2604144 36.7656228,20.2447995 37.203125,18.671875 C37.5572934,17.3593684 37.7760412,16.5052103 37.859375,16.109375 C37.9114586,15.848957 38.0572905,15.6145844 38.296875,15.40625 C38.5156261,15.2187491 38.7630195,15.0651048 39.0390625,14.9453125 C39.3151055,14.8255202 39.601561,14.7369795 39.8984375,14.6796875 C40.195314,14.6223955 40.4635405,14.59375 40.703125,14.59375 C41.1406272,14.59375 41.4374992,14.6744784 41.59375,14.8359375 C41.7500008,14.9973966 41.828125,15.2135403 41.828125,15.484375 C41.828125,15.7135428 41.7760422,16.0442687 41.671875,16.4765625 C41.5677078,16.9088563 41.4375008,17.3984348 41.28125,17.9453125 C41.1249992,18.4921902 40.9270845,19.1484337 40.6875,19.9140625 C40.4479155,20.6796913 40.2500008,21.377601 40.09375,22.0078125 C39.9374992,22.638024 39.8072922,23.2526012 39.703125,23.8515625 C39.5989578,24.4505238 39.546875,24.9895809 39.546875,25.46875 C39.546875,25.9375023 39.5989578,26.3098945 39.703125,26.5859375 C39.8072922,26.8619805 40.0208317,27 40.34375,27 C40.7187519,27 41.1354144,26.869793 41.59375,26.609375 C42.0520856,26.348957 42.5156227,26.033856 42.984375,25.6640625 C43.4531273,25.294269 43.9114561,24.9114603 44.359375,24.515625 C44.8072939,24.1197897 45.2031233,23.7812514 45.546875,23.5 L45.546875,26.671875 Z M38.5625,10.296875 C38.5625,10.0572905 38.6145828,9.78645984 38.71875,9.484375 C38.8229172,9.18229016 38.9921863,8.89843883 39.2265625,8.6328125 C39.4609387,8.36718617 39.7734355,8.14323008 40.1640625,7.9609375 C40.5546895,7.77864492 41.0416637,7.6875 41.625,7.6875 C41.9895852,7.6875 42.3333317,7.72916625 42.65625,7.8125 C42.9791683,7.89583375 43.2604155,8.02343664 43.5,8.1953125 C43.7395845,8.36718836 43.9296868,8.59374859 44.0703125,8.875 C44.2109382,9.15625141 44.28125,9.48958141 44.28125,9.875 C44.28125,10.2291684 44.2239589,10.572915 44.109375,10.90625 C43.9947911,11.239585 43.8125012,11.536457 43.5625,11.796875 C43.3124988,12.057293 42.9973977,12.2682284 42.6171875,12.4296875 C42.2369773,12.5911466 41.7812527,12.671875 41.25,12.671875 C40.3333288,12.671875 39.6562522,12.4557313 39.21875,12.0234375 C38.7812478,11.5911437 38.5625,11.0156286 38.5625,10.296875 Z M60.796875,26.171875 C60.5572905,26.50521 60.2369812,26.8958311 59.8359375,27.34375 C59.4348938,27.7916689 58.9843775,28.218748 58.484375,28.625 C57.9843725,29.031252 57.4479195,29.3749986 56.875,29.65625 C56.3020805,29.9375014 55.7291695,30.078125 55.15625,30.078125 C54.4687466,30.078125 53.8958356,29.856773 53.4375,29.4140625 C52.9791644,28.971352 52.583335,28.3281292 52.25,27.484375 C51.9999988,27.7760431 51.6927102,28.0729152 51.328125,28.375 C50.9635398,28.6770848 50.5651063,28.9505196 50.1328125,29.1953125 C49.7005187,29.4401054 49.2500023,29.6406242 48.78125,29.796875 C48.3124977,29.9531258 47.8437523,30.03125 47.375,30.03125 C46.8749975,30.03125 46.3880232,29.9296885 45.9140625,29.7265625 C45.4401018,29.5234365 45.0208352,29.2317727 44.65625,28.8515625 C44.2916648,28.4713523 44.0000011,28.0078152 43.78125,27.4609375 C43.5624989,26.9140598 43.453125,26.2968784 43.453125,25.609375 C43.453125,24.8281211 43.5624989,24.0260458 43.78125,23.203125 C44.0000011,22.3802042 44.3385394,21.4895881 44.796875,20.53125 C45.2552106,19.5729119 45.7473932,18.7447952 46.2734375,18.046875 C46.7994818,17.3489548 47.3749969,16.7395859 48,16.21875 C48.6250031,15.6979141 49.2838507,15.2838557 49.9765625,14.9765625 C50.6692743,14.6692693 51.3749964,14.515625 52.09375,14.515625 C52.3333345,14.515625 52.5208327,14.5624995 52.65625,14.65625 C52.7916673,14.7500005 52.9036454,14.8567702 52.9921875,14.9765625 C53.0807296,15.0963548 53.1666662,15.2135411 53.25,15.328125 C53.3333338,15.4427089 53.4374994,15.5260414 53.5625,15.578125 C53.6875006,15.6302086 53.8151035,15.6640624 53.9453125,15.6796875 C54.0755215,15.6953126 54.2083327,15.703125 54.34375,15.703125 C54.4583339,15.703125 54.5755202,15.7005209 54.6953125,15.6953125 C54.8151048,15.6901041 54.9322911,15.6875 55.046875,15.6875 C55.2031258,15.6875 55.3489577,15.7031248 55.484375,15.734375 C55.6197923,15.7656252 55.7395828,15.8333328 55.84375,15.9375 C55.9479172,16.0416672 56.0286455,16.1874991 56.0859375,16.375 C56.1432295,16.5625009 56.171875,16.8177067 56.171875,17.140625 C56.171875,17.6406275 56.1197922,18.1953095 56.015625,18.8046875 C55.9114578,19.4140655 55.7968756,20.0390593 55.671875,20.6796875 C55.5468744,21.3203157 55.3958342,22.0468709 55.21875,22.859375 C55.0416658,23.6718791 54.953125,24.3645805 54.953125,24.9375 C54.953125,25.4270858 54.9973954,25.8098945 55.0859375,26.0859375 C55.1744796,26.3619805 55.3645819,26.5 55.65625,26.5 C55.8750011,26.5 56.1041655,26.445313 56.34375,26.3359375 C56.5833345,26.226562 56.8255196,26.0833342 57.0703125,25.90625 C57.3151054,25.7291658 57.5598946,25.528647 57.8046875,25.3046875 C58.0494804,25.080728 58.2812489,24.8489595 58.5,24.609375 C59.0104192,24.0468722 59.5260391,23.4114619 60.046875,22.703125 L60.796875,26.171875 Z M47.453125,24.9375 C47.453125,25.197918 47.471354,25.4505196 47.5078125,25.6953125 C47.544271,25.9401054 47.6093745,26.1588532 47.703125,26.3515625 C47.7968755,26.5442718 47.9218742,26.7005202 48.078125,26.8203125 C48.2343758,26.9401048 48.4322905,27 48.671875,27 C49.0572936,27 49.4062484,26.833335 49.71875,26.5 C50.0312516,26.166665 50.3020822,25.7656273 50.53125,25.296875 C50.7604178,24.8281227 50.9453118,24.3437525 51.0859375,23.84375 C51.2265632,23.3437475 51.3177081,22.927085 51.359375,22.59375 L52.53125,17.484375 C52.1041645,17.484375 51.687502,17.5911448 51.28125,17.8046875 C50.874998,18.0182302 50.4921893,18.3072898 50.1328125,18.671875 C49.7734357,19.0364602 49.4427098,19.4531227 49.140625,19.921875 C48.8385402,20.3906273 48.5416681,20.9687466 48.25,21.65625 C47.9583319,22.3437534 47.7526048,22.9479141 47.6328125,23.46875 C47.5130202,23.9895859 47.453125,24.4791644 47.453125,24.9375 Z M59.609375,26.734375 C59.609375,26.0468716 59.6510412,25.2526087 59.734375,24.3515625 C59.8177088,23.4505163 59.9218744,22.4609429 60.046875,21.3828125 C60.1718756,20.3046821 60.3124992,19.3333377 60.46875,18.46875 C60.6250008,17.6041623 60.7760409,16.8645864 60.921875,16.25 C61.0364589,15.7708309 61.2578109,15.3697933 61.5859375,15.046875 C61.9140641,14.7239567 62.3593722,14.5625 62.921875,14.5625 C63.4843778,14.5625 63.8749989,14.7343733 64.09375,15.078125 C64.3125011,15.4218767 64.421875,15.8802055 64.421875,16.453125 C64.421875,16.6093758 64.4062502,16.8203112 64.375,17.0859375 C64.3437498,17.3515638 64.3046877,17.6432276 64.2578125,17.9609375 C64.2109373,18.2786474 64.1614586,18.6067691 64.109375,18.9453125 C64.0572914,19.2838559 64.0078127,19.6692687 63.9609375,20.1015625 C63.9140623,20.5338563 63.8750002,20.8567698 63.84375,21.0703125 C63.8124998,21.2838552 63.796875,21.427083 63.796875,21.5 L64.109375,21.5 C64.1718753,21.3854161 64.2708327,21.2005221 64.40625,20.9453125 C64.5416673,20.6901029 64.6979158,20.3229191 64.875,19.84375 C65.0520842,19.3645809 65.2421865,18.940106 65.4453125,18.5703125 C65.6484385,18.200519 65.8385408,17.8463559 66.015625,17.5078125 C66.1927092,17.1692691 66.3541659,16.869793 66.5,16.609375 C66.6458341,16.348957 66.755208,16.1562506 66.828125,16.03125 C67.16146,15.4687472 67.5416645,15.0833344 67.96875,14.875 C68.3958355,14.6666656 68.8697891,14.5625 69.390625,14.5625 C69.9114609,14.5625 70.3255193,14.7812478 70.6328125,15.21875 C70.9401057,15.6562522 71.09375,16.2604128 71.09375,17.03125 C71.09375,17.1458339 71.0703127,17.3385403 71.0234375,17.609375 C70.9765623,17.8802097 70.916667,18.2031231 70.84375,18.578125 C70.770833,18.9531269 70.6901046,19.437497 70.6015625,20.03125 C70.5130204,20.625003 70.432292,21.1562477 70.359375,21.625 C70.286458,22.0937523 70.2265627,22.5572894 70.1796875,23.015625 C70.1328123,23.4739606 70.109375,23.8958314 70.109375,24.28125 C70.109375,24.9270866 70.1901034,25.4583313 70.3515625,25.875 C70.5130216,26.2916687 70.7656233,26.5 71.109375,26.5 C71.2343756,26.5 71.4114572,26.4531255 71.640625,26.359375 C71.9843767,26.2343744 72.2031245,26.1250005 72.296875,26.03125 C72.7552106,25.6770816 72.9947916,25.5052083 73.015625,25.515625 C73.0468752,25.5260417 73.39583,25.3177105 74.0625,24.890625 C74.8958375,24.3593723 75.8906192,23.7083372 77.046875,22.9375 L77.03125,26.4375 L76.25,27.03125 C76.1874997,27.0833336 75.6979212,27.3541642 74.78125,27.84375 C73.4583267,28.5520869 72.63021,28.9791659 72.296875,29.125 C71.4843709,29.4895852 70.9791677,29.6979164 70.78125,29.75 C70.2604141,29.9166675 69.7135445,30 69.140625,30 C68.5677055,30 68.0859395,29.5859416 67.6953125,28.7578125 C67.3046855,27.9296834 67.109375,26.718758 67.109375,25.125 C67.109375,24.4999969 67.1510412,23.8255245 67.234375,23.1015625 C67.3177088,22.3776005 67.4218744,21.5989625 67.546875,20.765625 L67.296875,20.765625 L63.203125,28.890625 C62.9843739,29.3281272 62.7500012,29.6197909 62.5,29.765625 C62.239582,29.9218758 61.9375017,30 61.59375,30 C61.1666645,30 60.822918,29.9088551 60.5625,29.7265625 C60.302082,29.5442699 60.1015632,29.2994807 59.9609375,28.9921875 C59.8203118,28.6848943 59.7265627,28.3359395 59.6796875,27.9453125 C59.6328123,27.5546855 59.609375,27.1510437 59.609375,26.734375 Z M78,44.5 C77.4687473,44.5 76.9791689,44.4401048 76.53125,44.3203125 C76.0833311,44.2005202 75.6692727,44.0182304 75.2890625,43.7734375 C74.9088523,43.5286446 74.6015637,43.1875022 74.3671875,42.75 C74.1328113,42.3124978 73.9895836,41.8020863 73.9375,41.21875 C73.8541662,40.1249945 74.1562466,38.9635478 74.84375,37.734375 C75.2395853,37.0468716 75.5130201,36.5677097 75.6640625,36.296875 C75.8151049,36.0260403 76.0598941,35.6432316 76.3984375,35.1484375 C76.7369809,34.6536434 77.0833316,34.2083353 77.4375,33.8125 C78.1666703,32.9895792 78.7682268,32.3307316 79.2421875,31.8359375 C79.7161482,31.3411434 80.2812467,30.8072945 80.9375,30.234375 L81.25,28.359375 C80.0833275,29.4739639 78.9479222,30.03125 77.84375,30.03125 C77.0312459,30.03125 76.2838576,29.7864608 75.6015625,29.296875 C74.9192674,28.8072892 74.4062517,28.1979203 74.0625,27.46875 C73.4374969,26.1666602 73.421872,24.645842 74.015625,22.90625 C74.5572944,21.2812419 75.1041639,19.9401095 75.65625,18.8828125 C76.2083361,17.8255155 76.9218706,16.9062539 77.796875,16.125 C79.0677147,14.9895777 80.3020773,14.421875 81.5,14.421875 C82.0416694,14.421875 82.4374988,14.5729152 82.6875,14.875 C82.7187502,14.9062502 82.7656247,14.9661454 82.828125,15.0546875 C82.8906253,15.1432296 82.9348957,15.1979166 82.9609375,15.21875 C82.9869793,15.2395834 83.0312497,15.2812497 83.09375,15.34375 C83.1562503,15.4062503 83.2135414,15.4453124 83.265625,15.4609375 C83.3177086,15.4765626 83.3854162,15.4999998 83.46875,15.53125 C83.5520838,15.5625002 83.6458328,15.5833333 83.75,15.59375 C83.8541672,15.6041667 83.9739577,15.609375 84.109375,15.609375 L84.796875,15.59375 C85.2656273,15.59375 85.5885408,15.7343736 85.765625,16.015625 C85.8281253,16.1302089 85.895833,16.2812491 85.96875,16.46875 C86.0937506,16.7916683 86.1093755,17.8593659 86.015625,19.671875 C85.9843748,20.2343778 85.8515637,20.9322875 85.6171875,21.765625 C85.3828113,22.5989625 85.229167,23.5260366 85.15625,24.546875 C85.083333,25.5677134 84.9687508,26.8958252 84.8125,28.53125 C85.1145848,28.3541658 85.4374983,28.135418 85.78125,27.875 C87.0104228,26.947912 88.4010339,25.2239709 89.953125,22.703125 L90.96875,26.171875 C90.6770819,26.7552113 90.161462,27.4270795 89.421875,28.1875 C88.6718712,28.9375038 88.0364609,29.515623 87.515625,29.921875 C87.4218745,29.9843753 87.3489586,30.0312498 87.296875,30.0625 C86.29687,30.7083366 85.5729189,31.1822902 85.125,31.484375 C84.8437486,31.6718759 84.6510422,32.0104142 84.546875,32.5 C84.4427078,32.9895858 84.3281256,33.9062433 84.203125,35.25 C84.1614581,35.6354186 84.1302084,35.9322906 84.109375,36.140625 C84.0677081,36.6302108 84.010417,37.1015602 83.9375,37.5546875 C83.864583,38.0078148 83.7526049,38.5234346 83.6015625,39.1015625 C83.4505201,39.6796904 83.2760427,40.2109351 83.078125,40.6953125 C82.8802073,41.1796899 82.6223974,41.6640601 82.3046875,42.1484375 C81.9869776,42.6328149 81.6302103,43.041665 81.234375,43.375 C80.8385397,43.708335 80.3645861,43.9791656 79.8125,44.1875 C79.2604139,44.3958344 78.6562533,44.5 78,44.5 Z M77.609375,23.34375 C77.4114573,24.6666733 77.5052064,25.6666633 77.890625,26.34375 C78.1406262,26.7812522 78.468748,27 78.875,27 C79.5833369,27 80.1718727,26.4322973 80.640625,25.296875 C81.0052102,24.4010372 81.2083331,23.5000045 81.25,22.59375 L82.421875,17.390625 C81.2135356,17.390625 80.1510463,18.2031169 79.234375,19.828125 C78.2447867,21.5573003 77.7031255,22.7291636 77.609375,23.34375 Z M80.984375,34 C80.2552047,34.5208359 79.5364619,35.3567651 78.828125,36.5078125 C78.1197881,37.6588599 77.5572937,38.8281191 77.140625,40.015625 C76.7968733,41.0052133 76.9739548,41.5 77.671875,41.5 C77.9218762,41.5 78.1432282,41.4687503 78.3359375,41.40625 C78.5286468,41.3437497 78.7083325,41.2317716 78.875,41.0703125 C79.0416675,40.9088534 79.1874994,40.7343759 79.3125,40.546875 C79.4375006,40.3593741 79.5703118,40.0885434 79.7109375,39.734375 C79.8515632,39.3802066 79.9791661,39.0338559 80.09375,38.6953125 C80.2083339,38.3567691 80.3437492,37.9062528 80.5,37.34375 C80.5937505,37.0416652 80.6692705,36.7083352 80.7265625,36.34375 C80.7838545,35.9791648 80.8385414,35.5338568 80.890625,35.0078125 C80.9427086,34.4817682 80.9739583,34.1458341 80.984375,34 Z M93.40625,30 C92.8437472,30 92.3203149,29.7526066 91.8359375,29.2578125 C91.3515601,28.7630184 90.9296893,28.0989625 90.5703125,27.265625 C90.2109357,26.4322875 89.9296885,25.4661513 89.7265625,24.3671875 C89.5234365,23.2682237 89.421875,22.1145894 89.421875,20.90625 C89.421875,19.979162 89.4895827,18.9713596 89.625,17.8828125 C89.7604173,16.7942654 89.958332,15.6718808 90.21875,14.515625 C90.479168,13.3593692 90.7890607,12.1979225 91.1484375,11.03125 C91.5078143,9.8645775 91.9140602,8.74479703 92.3671875,7.671875 C92.8203148,6.59895297 93.3124973,5.59635883 93.84375,4.6640625 C94.3750027,3.73176617 94.9322888,2.9192743 95.515625,2.2265625 C96.0989613,1.5338507 96.7083302,0.989585313 97.34375,0.59375 C97.9791698,0.197914687 98.6249967,0 99.28125,0 C99.7291689,0 100.098957,0.101561484 100.390625,0.3046875 C100.682293,0.507813516 100.911457,0.77604 101.078125,1.109375 C101.244793,1.44271 101.361979,1.82031039 101.429688,2.2421875 C101.497396,2.66406461 101.53125,3.09374781 101.53125,3.53125 C101.53125,4.51042156 101.419272,5.50780742 101.195313,6.5234375 C100.971353,7.53906758 100.669273,8.5598907 100.289063,9.5859375 C99.9088523,10.6119843 99.4687525,11.6406198 98.96875,12.671875 C98.4687475,13.7031302 97.9479194,14.7265574 97.40625,15.7421875 C96.8645806,16.7578176 96.3203152,17.7578076 95.7734375,18.7421875 C95.2265598,19.7265674 94.7135441,20.6874953 94.234375,21.625 C94.1822914,21.7291672 94.1276045,21.8645825 94.0703125,22.03125 C94.0130205,22.1979175 93.9583336,22.3776032 93.90625,22.5703125 C93.8541664,22.7630218 93.8020836,22.9687489 93.75,23.1875 C93.6979164,23.4062511 93.6562502,23.6197906 93.625,23.828125 L93.625,24.046875 C93.625,24.3177097 93.6536455,24.5807279 93.7109375,24.8359375 C93.7682295,25.0911471 93.8385413,25.3203115 93.921875,25.5234375 C94.0052088,25.7265635 94.0937495,25.8880202 94.1875,26.0078125 C94.2812505,26.1276048 94.3697913,26.1875 94.453125,26.1875 C94.6510427,26.1875 94.8776029,26.1458338 95.1328125,26.0625 C95.3880221,25.9791662 95.6588527,25.8671882 95.9453125,25.7265625 C96.2317723,25.5859368 96.5260402,25.4244801 96.828125,25.2421875 C97.1302098,25.0598949 97.4218736,24.8750009 97.703125,24.6875 C98.3593783,24.2499978 99.0468714,23.7447945 99.765625,23.171875 L101.046875,26.453125 C100.119787,27.119795 99.2031295,27.7135391 98.296875,28.234375 C97.9010397,28.4531261 97.4921896,28.6692698 97.0703125,28.8828125 C96.6484354,29.0963552 96.2239605,29.2864575 95.796875,29.453125 C95.3697895,29.6197925 94.953127,29.7526037 94.546875,29.8515625 C94.140623,29.9505213 93.7604184,30 93.40625,30 Z M93.421875,17.5 C93.8906273,16.6666625 94.3880182,15.7291719 94.9140625,14.6875 C95.4401068,13.6458281 95.9374977,12.5729222 96.40625,11.46875 C96.8750023,10.3645778 97.2812483,9.26302633 97.625,8.1640625 C97.9687517,7.06509867 98.1874995,6.04167141 98.28125,5.09375 C98.28125,4.79166516 98.2734376,4.53385523 98.2578125,4.3203125 C98.2421874,4.10676977 98.1927088,4 98.109375,4 C97.8072902,4 97.4817726,4.19531055 97.1328125,4.5859375 C96.7838524,4.97656445 96.4348976,5.505205 96.0859375,6.171875 C95.7369774,6.838545 95.4036474,7.61457891 95.0859375,8.5 C94.7682276,9.38542109 94.4843762,10.32812 94.234375,11.328125 C93.9843738,12.32813 93.7864591,13.3567655 93.640625,14.4140625 C93.4947909,15.4713595 93.421875,16.499995 93.421875,17.5 Z M103.609375,30 C102.630203,30 101.773441,29.8229184 101.039063,29.46875 C100.304684,29.1145816 99.6927108,28.6380238 99.203125,28.0390625 C98.7135392,27.4401012 98.3463554,26.7473998 98.1015625,25.9609375 C97.8567696,25.1744752 97.734375,24.3489627 97.734375,23.484375 C97.734375,22.9010387 97.8437489,22.2057332 98.0625,21.3984375 C98.2812511,20.5911418 98.5078113,19.8750031 98.7421875,19.25 C98.9765637,18.6249969 99.2708316,18.0286487 99.625,17.4609375 C99.9791684,16.8932263 100.393227,16.3932313 100.867188,15.9609375 C101.341148,15.5286437 101.872393,15.1848971 102.460938,14.9296875 C103.049482,14.6744779 103.703121,14.546875 104.421875,14.546875 C105.005211,14.546875 105.546873,14.6406241 106.046875,14.828125 C106.546878,15.0156259 106.981769,15.2786441 107.351563,15.6171875 C107.721356,15.9557309 108.010416,16.3645809 108.21875,16.84375 C108.427084,17.3229191 108.53125,17.859372 108.53125,18.453125 C108.53125,19.0989616 108.320315,19.8229127 107.898438,20.625 C107.47656,21.4270873 106.984378,22.1145805 106.421875,22.6875 C105.859372,23.2604195 105.190108,23.7708311 104.414063,24.21875 C103.638017,24.6666689 102.79688,25.0156238 101.890625,25.265625 C102.046876,25.5468764 102.20052,25.7812491 102.351563,25.96875 C102.502605,26.1562509 102.656249,26.3020828 102.8125,26.40625 C102.968751,26.5104172 103.132812,26.5833331 103.304688,26.625 C103.476563,26.6666669 103.661457,26.6875 103.859375,26.6875 C104.484378,26.6875 105.143226,26.5625012 105.835938,26.3125 C106.528649,26.0624988 107.203122,25.7500019 107.859375,25.375 C108.515628,24.9999981 109.135414,24.591148 109.71875,24.1484375 C110.302086,23.705727 110.796873,23.2864603 111.203125,22.890625 L113.21875,24.984375 C112.302079,25.9322964 111.32813,26.7708297 110.296875,27.5 C109.848956,27.8125016 109.36719,28.1197902 108.851563,28.421875 C108.335935,28.7239598 107.794274,28.9921863 107.226563,29.2265625 C106.658851,29.4609387 106.070316,29.6484368 105.460938,29.7890625 C104.851559,29.9296882 104.234378,30 103.609375,30 Z M101.53125,22.65625 C101.906252,22.65625 102.315102,22.5598968 102.757813,22.3671875 C103.200523,22.1744782 103.611977,21.9270848 103.992188,21.625 C104.372398,21.3229152 104.74479,20.9166692 105.109375,20.40625 C105.47396,19.8958308 105.65625,19.47396 105.65625,19.140625 C105.65625,18.6718727 105.570313,18.2864598 105.398438,17.984375 C105.226562,17.6822902 105.015626,17.53125 104.765625,17.53125 C104.317706,17.53125 103.934897,17.6145825 103.617188,17.78125 C103.299478,17.9479175 103.033855,18.1640612 102.820313,18.4296875 C102.60677,18.6953138 102.434896,18.9973941 102.304688,19.3359375 C102.174479,19.6744809 102.023438,20.0937475 101.851563,20.59375 C101.679687,21.0937525 101.583333,21.5052067 101.5625,21.828125 C101.541667,22.1510433 101.53125,22.4270822 101.53125,22.65625 Z M125.203125,2.875 C126.90105,2.875 128.411452,3.01562359 129.734375,3.296875 C131.057298,3.57812641 132.216141,3.9687475 133.210938,4.46875 C134.205734,4.9687525 135.046872,5.5651007 135.734375,6.2578125 C136.421878,6.9505243 136.979165,7.70572508 137.40625,8.5234375 C137.833335,9.34114992 138.143228,10.2083288 138.335938,11.125 C138.528647,12.0416712 138.625,12.9791619 138.625,13.9375 C138.625,15.2500066 138.479168,16.6718673 138.1875,18.203125 C137.895832,19.7343827 137.473961,21.130202 136.921875,22.390625 C136.369789,23.651048 135.690108,24.8333278 134.882812,25.9375 C134.075517,27.0416722 133.151047,28.0052042 132.109375,28.828125 C131.067703,29.6510458 129.921881,30.2994768 128.671875,30.7734375 C127.421869,31.2473982 126.072924,31.484375 124.625,31.484375 C124.135414,31.484375 123.635419,31.447917 123.125,31.375 C122.614581,31.302083 122.119794,31.2031256 121.640625,31.078125 C121.161456,30.9531244 120.708335,30.8125008 120.28125,30.65625 C119.854165,30.4999992 119.479168,30.3385425 119.15625,30.171875 C119.020833,30.1302081 118.914063,30.0807295 118.835938,30.0234375 C118.757812,29.9661455 118.697917,29.8984379 118.65625,29.8203125 C118.614583,29.7421871 118.588542,29.6458339 118.578125,29.53125 C118.567708,29.4166661 118.5625,29.2708342 118.5625,29.09375 C118.5625,27.3645747 118.60677,25.5937591 118.695313,23.78125 C118.783855,21.9687409 118.96354,20.1067804 119.234375,18.1953125 C119.50521,16.2838446 119.895831,14.5963615 120.40625,13.1328125 C120.916669,11.6692635 121.593746,10.3177145 122.4375,9.078125 C122.645834,8.77604016 123.317703,8.625 124.453125,8.625 C125.338546,8.625 125.973956,8.94791344 126.359375,9.59375 C125.880206,10.2395866 125.479168,10.9583294 125.15625,11.75 C124.833332,12.5416706 124.562501,13.3203087 124.34375,14.0859375 C124.124999,14.8515663 123.942709,15.6874955 123.796875,16.59375 C123.515624,18.3437588 123.380208,19.2291666 123.390625,19.25 C123.421875,19.2708334 123.302085,20.2708234 123.03125,22.25 C122.927083,22.9375034 122.846354,23.5364558 122.789063,24.046875 C122.731771,24.5572942 122.690104,25.0052064 122.664063,25.390625 C122.638021,25.7760436 122.625,26.1510398 122.625,26.515625 C122.625,26.9010436 122.638021,27.223957 122.664063,27.484375 C122.690104,27.744793 122.752604,27.9531242 122.851563,28.109375 C122.950521,28.2656258 123.101561,28.3776038 123.304688,28.4453125 C123.507814,28.5130212 123.781248,28.546875 124.125,28.546875 C125.166672,28.546875 126.156245,28.3411479 127.09375,27.9296875 C128.031255,27.5182271 128.895829,26.9661493 129.6875,26.2734375 C130.479171,25.5807257 131.190101,24.7760462 131.820312,23.859375 C132.450524,22.9427038 132.986977,21.8828185 133.429688,20.6796875 C133.872398,19.4765565 134.21354,18.3463595 134.453125,17.2890625 C134.69271,16.2317655 134.8125,15.2135466 134.8125,14.234375 C134.8125,13.0260356 134.614585,11.9453173 134.21875,10.9921875 C133.822915,10.0390577 133.268233,9.23177414 132.554688,8.5703125 C131.841142,7.90885086 130.98438,7.40364758 129.984375,7.0546875 C128.98437,6.70572742 127.885423,6.53125 126.6875,6.53125 C125.812496,6.53125 124.945317,6.58333281 124.085938,6.6875 C123.226558,6.79166719 122.429691,6.95312391 121.695313,7.171875 C120.960934,7.39062609 120.315107,7.66926914 119.757813,8.0078125 C119.200518,8.34635586 118.781251,8.74999766 118.5,9.21875 C117.73958,10.3958392 117.114586,11.3046843 116.625,11.9453125 C116.135414,12.5859407 115.72396,12.90625 115.390625,12.90625 C114.932289,12.90625 114.703125,12.3802136 114.703125,11.328125 C114.703125,10.3072866 114.835936,9.39062906 115.101563,8.578125 C115.367189,7.76562094 115.736977,7.04427398 116.210938,6.4140625 C116.684898,5.78385102 117.247393,5.24739805 117.898438,4.8046875 C118.549482,4.36197695 119.263017,3.99739727 120.039063,3.7109375 C120.815108,3.42447773 121.640621,3.21354234 122.515625,3.078125 C123.390629,2.94270766 124.286454,2.875 125.203125,2.875 Z M145.796875,30 C144.817703,30 143.960941,29.8229184 143.226562,29.46875 C142.492184,29.1145816 141.880211,28.6380238 141.390625,28.0390625 C140.901039,27.4401012 140.533855,26.7473998 140.289062,25.9609375 C140.04427,25.1744752 139.921875,24.3489627 139.921875,23.484375 C139.921875,22.9010387 140.031249,22.2057332 140.25,21.3984375 C140.468751,20.5911418 140.695311,19.8750031 140.929688,19.25 C141.164064,18.6249969 141.458332,18.0286487 141.8125,17.4609375 C142.166668,16.8932263 142.580727,16.3932313 143.054688,15.9609375 C143.528648,15.5286437 144.059893,15.1848971 144.648438,14.9296875 C145.236982,14.6744779 145.890621,14.546875 146.609375,14.546875 C147.192711,14.546875 147.734373,14.6406241 148.234375,14.828125 C148.734377,15.0156259 149.169269,15.2786441 149.539062,15.6171875 C149.908856,15.9557309 150.197916,16.3645809 150.40625,16.84375 C150.614584,17.3229191 150.71875,17.859372 150.71875,18.453125 C150.71875,19.0989616 150.507815,19.8229127 150.085938,20.625 C149.66406,21.4270873 149.171878,22.1145805 148.609375,22.6875 C148.046872,23.2604195 147.377608,23.7708311 146.601562,24.21875 C145.825517,24.6666689 144.98438,25.0156238 144.078125,25.265625 C144.234376,25.5468764 144.38802,25.7812491 144.539062,25.96875 C144.690105,26.1562509 144.843749,26.3020828 145,26.40625 C145.156251,26.5104172 145.320312,26.5833331 145.492188,26.625 C145.664063,26.6666669 145.848957,26.6875 146.046875,26.6875 C146.671878,26.6875 147.330726,26.5625012 148.023438,26.3125 C148.716149,26.0624988 149.390622,25.7500019 150.046875,25.375 C150.703128,24.9999981 151.322914,24.591148 151.90625,24.1484375 C152.489586,23.705727 152.984373,23.2864603 153.390625,22.890625 L155.40625,24.984375 C154.489579,25.9322964 153.51563,26.7708297 152.484375,27.5 C152.036456,27.8125016 151.55469,28.1197902 151.039062,28.421875 C150.523435,28.7239598 149.981774,28.9921863 149.414062,29.2265625 C148.846351,29.4609387 148.257816,29.6484368 147.648438,29.7890625 C147.039059,29.9296882 146.421878,30 145.796875,30 Z M143.71875,22.65625 C144.093752,22.65625 144.502602,22.5598968 144.945312,22.3671875 C145.388023,22.1744782 145.799477,21.9270848 146.179688,21.625 C146.559898,21.3229152 146.93229,20.9166692 147.296875,20.40625 C147.66146,19.8958308 147.84375,19.47396 147.84375,19.140625 C147.84375,18.6718727 147.757813,18.2864598 147.585938,17.984375 C147.414062,17.6822902 147.203126,17.53125 146.953125,17.53125 C146.505206,17.53125 146.122397,17.6145825 145.804688,17.78125 C145.486978,17.9479175 145.221355,18.1640612 145.007812,18.4296875 C144.79427,18.6953138 144.622396,18.9973941 144.492188,19.3359375 C144.361979,19.6744809 144.210938,20.0937475 144.039062,20.59375 C143.867187,21.0937525 143.770833,21.5052067 143.75,21.828125 C143.729167,22.1510433 143.71875,22.4270822 143.71875,22.65625 Z M151.796875,24 C152.380211,23.4999975 152.854165,23.083335 153.21875,22.75 C153.583335,22.416665 153.947915,22.028648 154.3125,21.5859375 C154.677085,21.143227 154.966145,20.7812514 155.179688,20.5 C155.39323,20.2187486 155.645832,19.8854186 155.9375,19.5 C156.229168,19.1145814 156.583331,18.643232 157,18.0859375 C157.416669,17.528643 157.95833,16.8333375 158.625,16 C158.760417,15.8124991 158.911457,15.6302092 159.078125,15.453125 C159.244793,15.2760408 159.429686,15.1171882 159.632812,14.9765625 C159.835939,14.8359368 160.059895,14.7213546 160.304688,14.6328125 C160.54948,14.5442704 160.822915,14.5 161.125,14.5 C161.625002,14.5 162.010415,14.554687 162.28125,14.6640625 C162.552085,14.773438 162.749999,14.9062492 162.875,15.0625 C163.000001,15.2187508 163.072917,15.3828116 163.09375,15.5546875 C163.114583,15.7265634 163.125,15.8749994 163.125,16 C163.125,16.2500013 163.026043,16.5260402 162.828125,16.828125 C162.630207,17.1302098 162.41146,17.4218736 162.171875,17.703125 C161.93229,17.9843764 161.70573,18.2421863 161.492188,18.4765625 C161.278645,18.7109387 161.15625,18.8854161 161.125,19 C161.125,19.3229183 161.148437,19.6171862 161.195312,19.8828125 C161.242188,20.1484388 161.304687,20.4088529 161.382812,20.6640625 C161.460938,20.9192721 161.541666,21.1901027 161.625,21.4765625 C161.708334,21.7630223 161.789062,22.0937481 161.867188,22.46875 C161.945313,22.8437519 161.955729,23.3593717 161.898438,24.015625 C161.841146,24.6718783 161.8125,25.33333 161.8125,26 C162.187502,25.7499988 162.591144,25.5234385 163.023438,25.3203125 C163.455731,25.1171865 163.906248,24.9062511 164.375,24.6875 C164.843752,24.4687489 165.325518,24.2265638 165.820312,23.9609375 C166.315107,23.6953112 166.812498,23.3750019 167.3125,23 L167.328125,26.5 C166.682288,27.0000025 165.9349,27.4687478 165.085938,27.90625 C164.236975,28.3437522 163.346359,28.729165 162.414062,29.0625 C161.481766,29.395835 160.539067,29.6588532 159.585938,29.8515625 C158.632808,30.0442718 157.729171,30.140625 156.875,30.140625 C156.260414,30.140625 155.687503,30.0833339 155.15625,29.96875 C154.624997,29.8541661 154.158856,29.6744804 153.757812,29.4296875 C153.356769,29.1848946 153.031251,28.8645853 152.78125,28.46875 C152.531249,28.0729147 152.380209,27.5937528 152.328125,27.03125 C152.182291,27.0625002 152.039063,27.0833333 151.898438,27.09375 C151.757812,27.1041667 151.619792,27.109375 151.484375,27.109375 C151.317707,27.109375 151.161459,27.1041667 151.015625,27.09375 C150.869791,27.0833333 150.744792,27.0442712 150.640625,26.9765625 C150.536458,26.9088538 150.453125,26.7994799 150.390625,26.6484375 C150.328125,26.4973951 150.296875,26.2812514 150.296875,26 C150.296875,25.7499988 150.359374,25.5182302 150.484375,25.3046875 C150.609376,25.0911448 150.755207,24.9010425 150.921875,24.734375 C151.088543,24.5677075 151.255207,24.4218756 151.421875,24.296875 C151.588543,24.1718744 151.713541,24.072917 151.796875,24 Z M153.796875,26 C153.921876,26 154.059895,26.0781242 154.210938,26.234375 C154.36198,26.3906258 154.536457,26.5624991 154.734375,26.75 C154.932293,26.9375009 155.161457,27.1093742 155.421875,27.265625 C155.682293,27.4218758 155.979165,27.5 156.3125,27.5 C156.718752,27.5 157.054686,27.4322923 157.320312,27.296875 C157.585939,27.1614577 157.796874,26.981772 157.953125,26.7578125 C158.109376,26.533853 158.21875,26.273439 158.28125,25.9765625 C158.34375,25.679686 158.375,25.3697933 158.375,25.046875 C158.375,24.7656236 158.356771,24.4791681 158.320312,24.1875 C158.283854,23.8958319 158.289062,23.5338563 158.335938,23.1015625 C158.382813,22.6692687 158.372396,22.3359387 158.304688,22.1015625 C158.236979,21.8671863 158.177084,21.6666675 158.125,21.5 L153.796875,26 Z M175.265625,26.671875 C174.890623,27.0156267 174.424482,27.3828105 173.867188,27.7734375 C173.309893,28.1640645 172.708337,28.5234359 172.0625,28.8515625 C171.416663,29.1796891 170.757816,29.4531239 170.085938,29.671875 C169.414059,29.8906261 168.776045,30 168.171875,30 C167.630206,30 167.174481,29.9244799 166.804688,29.7734375 C166.434894,29.6223951 166.135418,29.4114597 165.90625,29.140625 C165.677082,28.8697903 165.513021,28.5390645 165.414062,28.1484375 C165.315104,27.7578105 165.265625,27.3281273 165.265625,26.859375 C165.265625,26.2031217 165.338541,25.4375044 165.484375,24.5625 C165.776043,22.8749916 165.963541,21.9270844 166.046875,21.71875 C166.192709,21.2604144 166.484373,20.2447995 166.921875,18.671875 C167.276043,17.3593684 167.494791,16.5052103 167.578125,16.109375 C167.630209,15.848957 167.77604,15.6145844 168.015625,15.40625 C168.234376,15.2187491 168.481769,15.0651048 168.757812,14.9453125 C169.033856,14.8255202 169.320311,14.7369795 169.617188,14.6796875 C169.914064,14.6223955 170.18229,14.59375 170.421875,14.59375 C170.859377,14.59375 171.156249,14.6744784 171.3125,14.8359375 C171.468751,14.9973966 171.546875,15.2135403 171.546875,15.484375 C171.546875,15.7135428 171.494792,16.0442687 171.390625,16.4765625 C171.286458,16.9088563 171.156251,17.3984348 171,17.9453125 C170.843749,18.4921902 170.645835,19.1484337 170.40625,19.9140625 C170.166665,20.6796913 169.968751,21.377601 169.8125,22.0078125 C169.656249,22.638024 169.526042,23.2526012 169.421875,23.8515625 C169.317708,24.4505238 169.265625,24.9895809 169.265625,25.46875 C169.265625,25.9375023 169.317708,26.3098945 169.421875,26.5859375 C169.526042,26.8619805 169.739582,27 170.0625,27 C170.437502,27 170.854164,26.869793 171.3125,26.609375 C171.770836,26.348957 172.234373,26.033856 172.703125,25.6640625 C173.171877,25.294269 173.630206,24.9114603 174.078125,24.515625 C174.526044,24.1197897 174.921873,23.7812514 175.265625,23.5 L175.265625,26.671875 Z M168.28125,10.296875 C168.28125,10.0572905 168.333333,9.78645984 168.4375,9.484375 C168.541667,9.18229016 168.710936,8.89843883 168.945312,8.6328125 C169.179689,8.36718617 169.492186,8.14323008 169.882812,7.9609375 C170.273439,7.77864492 170.760414,7.6875 171.34375,7.6875 C171.708335,7.6875 172.052082,7.72916625 172.375,7.8125 C172.697918,7.89583375 172.979165,8.02343664 173.21875,8.1953125 C173.458335,8.36718836 173.648437,8.59374859 173.789062,8.875 C173.929688,9.15625141 174,9.48958141 174,9.875 C174,10.2291684 173.942709,10.572915 173.828125,10.90625 C173.713541,11.239585 173.531251,11.536457 173.28125,11.796875 C173.031249,12.057293 172.716148,12.2682284 172.335938,12.4296875 C171.955727,12.5911466 171.500003,12.671875 170.96875,12.671875 C170.052079,12.671875 169.375002,12.4557313 168.9375,12.0234375 C168.499998,11.5911437 168.28125,11.0156286 168.28125,10.296875 Z M177.40625,44.5 C176.874997,44.5 176.385419,44.4401048 175.9375,44.3203125 C175.489581,44.2005202 175.075523,44.0182304 174.695312,43.7734375 C174.315102,43.5286446 174.007814,43.1875022 173.773438,42.75 C173.539061,42.3124978 173.395834,41.8020863 173.34375,41.21875 C173.260416,40.1249945 173.562497,38.9635478 174.25,37.734375 C174.645835,37.0468716 174.91927,36.5677097 175.070312,36.296875 C175.221355,36.0260403 175.466144,35.6432316 175.804688,35.1484375 C176.143231,34.6536434 176.489582,34.2083353 176.84375,33.8125 C177.57292,32.9895792 178.174477,32.3307316 178.648438,31.8359375 C179.122398,31.3411434 179.687497,30.8072945 180.34375,30.234375 L180.65625,28.359375 C179.489577,29.4739639 178.354172,30.03125 177.25,30.03125 C176.437496,30.03125 175.690108,29.7864608 175.007812,29.296875 C174.325517,28.8072892 173.812502,28.1979203 173.46875,27.46875 C172.843747,26.1666602 172.828122,24.645842 173.421875,22.90625 C173.963544,21.2812419 174.510414,19.9401095 175.0625,18.8828125 C175.614586,17.8255155 176.328121,16.9062539 177.203125,16.125 C178.473965,14.9895777 179.708327,14.421875 180.90625,14.421875 C181.447919,14.421875 181.843749,14.5729152 182.09375,14.875 C182.125,14.9062502 182.171875,14.9661454 182.234375,15.0546875 C182.296875,15.1432296 182.341146,15.1979166 182.367188,15.21875 C182.393229,15.2395834 182.4375,15.2812497 182.5,15.34375 C182.5625,15.4062503 182.619791,15.4453124 182.671875,15.4609375 C182.723959,15.4765626 182.791666,15.4999998 182.875,15.53125 C182.958334,15.5625002 183.052083,15.5833333 183.15625,15.59375 C183.260417,15.6041667 183.380208,15.609375 183.515625,15.609375 L184.203125,15.59375 C184.671877,15.59375 184.994791,15.7343736 185.171875,16.015625 C185.234375,16.1302089 185.302083,16.2812491 185.375,16.46875 C185.500001,16.7916683 185.515625,17.8593659 185.421875,19.671875 C185.390625,20.2343778 185.257814,20.9322875 185.023438,21.765625 C184.789061,22.5989625 184.635417,23.5260366 184.5625,24.546875 C184.489583,25.5677134 184.375001,26.8958252 184.21875,28.53125 C184.520835,28.3541658 184.843748,28.135418 185.1875,27.875 C186.416673,26.947912 187.807284,25.2239709 189.359375,22.703125 L190.375,26.171875 C190.083332,26.7552113 189.567712,27.4270795 188.828125,28.1875 C188.078121,28.9375038 187.442711,29.515623 186.921875,29.921875 C186.828125,29.9843753 186.755209,30.0312498 186.703125,30.0625 C185.70312,30.7083366 184.979169,31.1822902 184.53125,31.484375 C184.249999,31.6718759 184.057292,32.0104142 183.953125,32.5 C183.848958,32.9895858 183.734376,33.9062433 183.609375,35.25 C183.567708,35.6354186 183.536458,35.9322906 183.515625,36.140625 C183.473958,36.6302108 183.416667,37.1015602 183.34375,37.5546875 C183.270833,38.0078148 183.158855,38.5234346 183.007812,39.1015625 C182.85677,39.6796904 182.682293,40.2109351 182.484375,40.6953125 C182.286457,41.1796899 182.028647,41.6640601 181.710938,42.1484375 C181.393228,42.6328149 181.03646,43.041665 180.640625,43.375 C180.24479,43.708335 179.770836,43.9791656 179.21875,44.1875 C178.666664,44.3958344 178.062503,44.5 177.40625,44.5 Z M177.015625,23.34375 C176.817707,24.6666733 176.911456,25.6666633 177.296875,26.34375 C177.546876,26.7812522 177.874998,27 178.28125,27 C178.989587,27 179.578123,26.4322973 180.046875,25.296875 C180.41146,24.4010372 180.614583,23.5000045 180.65625,22.59375 L181.828125,17.390625 C180.619786,17.390625 179.557296,18.2031169 178.640625,19.828125 C177.651037,21.5573003 177.109375,22.7291636 177.015625,23.34375 Z M180.390625,34 C179.661455,34.5208359 178.942712,35.3567651 178.234375,36.5078125 C177.526038,37.6588599 176.963544,38.8281191 176.546875,40.015625 C176.203123,41.0052133 176.380205,41.5 177.078125,41.5 C177.328126,41.5 177.549478,41.4687503 177.742188,41.40625 C177.934897,41.3437497 178.114583,41.2317716 178.28125,41.0703125 C178.447918,40.9088534 178.593749,40.7343759 178.71875,40.546875 C178.843751,40.3593741 178.976562,40.0885434 179.117188,39.734375 C179.257813,39.3802066 179.385416,39.0338559 179.5,38.6953125 C179.614584,38.3567691 179.749999,37.9062528 179.90625,37.34375 C180,37.0416652 180.075521,36.7083352 180.132813,36.34375 C180.190104,35.9791648 180.244791,35.5338568 180.296875,35.0078125 C180.348959,34.4817682 180.380208,34.1458341 180.390625,34 Z M189.328125,26.734375 C189.328125,26.0468716 189.369791,25.2526087 189.453125,24.3515625 C189.536459,23.4505163 189.640624,22.4609429 189.765625,21.3828125 C189.890626,20.3046821 190.031249,19.3333377 190.1875,18.46875 C190.343751,17.6041623 190.494791,16.8645864 190.640625,16.25 C190.755209,15.7708309 190.976561,15.3697933 191.304688,15.046875 C191.632814,14.7239567 192.078122,14.5625 192.640625,14.5625 C193.203128,14.5625 193.593749,14.7343733 193.8125,15.078125 C194.031251,15.4218767 194.140625,15.8802055 194.140625,16.453125 C194.140625,16.6093758 194.125,16.8203112 194.09375,17.0859375 C194.0625,17.3515638 194.023438,17.6432276 193.976563,17.9609375 C193.929687,18.2786474 193.880209,18.6067691 193.828125,18.9453125 C193.776041,19.2838559 193.726563,19.6692687 193.679688,20.1015625 C193.632812,20.5338563 193.59375,20.8567698 193.5625,21.0703125 C193.53125,21.2838552 193.515625,21.427083 193.515625,21.5 L193.828125,21.5 C193.890625,21.3854161 193.989583,21.2005221 194.125,20.9453125 C194.260417,20.6901029 194.416666,20.3229191 194.59375,19.84375 C194.770834,19.3645809 194.960936,18.940106 195.164063,18.5703125 C195.367189,18.200519 195.557291,17.8463559 195.734375,17.5078125 C195.911459,17.1692691 196.072916,16.869793 196.21875,16.609375 C196.364584,16.348957 196.473958,16.1562506 196.546875,16.03125 C196.88021,15.4687472 197.260415,15.0833344 197.6875,14.875 C198.114585,14.6666656 198.588539,14.5625 199.109375,14.5625 C199.630211,14.5625 200.044269,14.7812478 200.351563,15.21875 C200.658856,15.6562522 200.8125,16.2604128 200.8125,17.03125 C200.8125,17.1458339 200.789063,17.3385403 200.742188,17.609375 C200.695312,17.8802097 200.635417,18.2031231 200.5625,18.578125 C200.489583,18.9531269 200.408855,19.437497 200.320313,20.03125 C200.23177,20.625003 200.151042,21.1562477 200.078125,21.625 C200.005208,22.0937523 199.945313,22.5572894 199.898438,23.015625 C199.851562,23.4739606 199.828125,23.8958314 199.828125,24.28125 C199.828125,24.9270866 199.908853,25.4583313 200.070313,25.875 C200.231772,26.2916687 200.484373,26.5 200.828125,26.5 C200.953126,26.5 201.130207,26.4531255 201.359375,26.359375 C201.703127,26.2343744 201.921875,26.1250005 202.015625,26.03125 C202.473961,25.6770816 202.713542,25.5052083 202.734375,25.515625 C202.765625,25.5260417 203.11458,25.3177105 203.78125,24.890625 C204.614587,24.3593723 205.609369,23.7083372 206.765625,22.9375 L206.75,26.4375 L205.96875,27.03125 C205.90625,27.0833336 205.416671,27.3541642 204.5,27.84375 C203.177077,28.5520869 202.34896,28.9791659 202.015625,29.125 C201.203121,29.4895852 200.697918,29.6979164 200.5,29.75 C199.979164,29.9166675 199.432295,30 198.859375,30 C198.286455,30 197.804689,29.5859416 197.414063,28.7578125 C197.023436,27.9296834 196.828125,26.718758 196.828125,25.125 C196.828125,24.4999969 196.869791,23.8255245 196.953125,23.1015625 C197.036459,22.3776005 197.140624,21.5989625 197.265625,20.765625 L197.015625,20.765625 L192.921875,28.890625 C192.703124,29.3281272 192.468751,29.6197909 192.21875,29.765625 C191.958332,29.9218758 191.656252,30 191.3125,30 C190.885415,30 190.541668,29.9088551 190.28125,29.7265625 C190.020832,29.5442699 189.820313,29.2994807 189.679688,28.9921875 C189.539062,28.6848943 189.445313,28.3359395 189.398438,27.9453125 C189.351562,27.5546855 189.328125,27.1510437 189.328125,26.734375 Z M209.765625,30 C208.786453,30 207.929691,29.8229184 207.195313,29.46875 C206.460934,29.1145816 205.848961,28.6380238 205.359375,28.0390625 C204.869789,27.4401012 204.502605,26.7473998 204.257813,25.9609375 C204.01302,25.1744752 203.890625,24.3489627 203.890625,23.484375 C203.890625,22.9010387 203.999999,22.2057332 204.21875,21.3984375 C204.437501,20.5911418 204.664061,19.8750031 204.898438,19.25 C205.132814,18.6249969 205.427082,18.0286487 205.78125,17.4609375 C206.135418,16.8932263 206.549477,16.3932313 207.023438,15.9609375 C207.497398,15.5286437 208.028643,15.1848971 208.617188,14.9296875 C209.205732,14.6744779 209.859371,14.546875 210.578125,14.546875 C211.161461,14.546875 211.703123,14.6406241 212.203125,14.828125 C212.703127,15.0156259 213.138019,15.2786441 213.507813,15.6171875 C213.877606,15.9557309 214.166666,16.3645809 214.375,16.84375 C214.583334,17.3229191 214.6875,17.859372 214.6875,18.453125 C214.6875,19.0989616 214.476565,19.8229127 214.054688,20.625 C213.63281,21.4270873 213.140628,22.1145805 212.578125,22.6875 C212.015622,23.2604195 211.346358,23.7708311 210.570313,24.21875 C209.794267,24.6666689 208.95313,25.0156238 208.046875,25.265625 C208.203126,25.5468764 208.35677,25.7812491 208.507813,25.96875 C208.658855,26.1562509 208.812499,26.3020828 208.96875,26.40625 C209.125001,26.5104172 209.289062,26.5833331 209.460938,26.625 C209.632813,26.6666669 209.817707,26.6875 210.015625,26.6875 C210.640628,26.6875 211.299476,26.5625012 211.992188,26.3125 C212.684899,26.0624988 213.359372,25.7500019 214.015625,25.375 C214.671878,24.9999981 215.291664,24.591148 215.875,24.1484375 C216.458336,23.705727 216.953123,23.2864603 217.359375,22.890625 L219.375,24.984375 C218.458329,25.9322964 217.48438,26.7708297 216.453125,27.5 C216.005206,27.8125016 215.52344,28.1197902 215.007813,28.421875 C214.492185,28.7239598 213.950524,28.9921863 213.382813,29.2265625 C212.815101,29.4609387 212.226566,29.6484368 211.617188,29.7890625 C211.007809,29.9296882 210.390628,30 209.765625,30 Z M207.6875,22.65625 C208.062502,22.65625 208.471352,22.5598968 208.914063,22.3671875 C209.356773,22.1744782 209.768227,21.9270848 210.148438,21.625 C210.528648,21.3229152 210.90104,20.9166692 211.265625,20.40625 C211.63021,19.8958308 211.8125,19.47396 211.8125,19.140625 C211.8125,18.6718727 211.726563,18.2864598 211.554688,17.984375 C211.382812,17.6822902 211.171876,17.53125 210.921875,17.53125 C210.473956,17.53125 210.091147,17.6145825 209.773438,17.78125 C209.455728,17.9479175 209.190105,18.1640612 208.976563,18.4296875 C208.76302,18.6953138 208.591146,18.9973941 208.460938,19.3359375 C208.330729,19.6744809 208.179688,20.0937475 208.007813,20.59375 C207.835937,21.0937525 207.739583,21.5052067 207.71875,21.828125 C207.697917,22.1510433 207.6875,22.4270822 207.6875,22.65625 Z M216.265625,26.734375 C216.265625,26.2760394 216.291666,25.7421905 216.34375,25.1328125 C216.395834,24.5234345 216.466145,23.8802117 216.554688,23.203125 C216.64323,22.5260383 216.747395,21.835941 216.867188,21.1328125 C216.98698,20.429684 217.140624,19.6796915 217.328125,18.8828125 C217.515626,18.0859335 217.677083,17.4218777 217.8125,16.890625 C217.947917,16.3593723 218.083333,15.9218767 218.21875,15.578125 C218.302084,15.3489572 218.385416,15.1666673 218.46875,15.03125 C218.552084,14.8958327 218.648437,14.7890629 218.757813,14.7109375 C218.867188,14.6328121 219.002603,14.5807293 219.164063,14.5546875 C219.325522,14.5286457 219.52604,14.515625 219.765625,14.515625 C220.03646,14.515625 220.247395,14.5286457 220.398438,14.5546875 C220.54948,14.5807293 220.661458,14.6432287 220.734375,14.7421875 C220.807292,14.8411463 220.851562,14.9843741 220.867188,15.171875 C220.882813,15.3593759 220.890625,15.6145817 220.890625,15.9375 C220.890625,16.3229186 220.864584,16.8697881 220.8125,17.578125 C220.760416,18.2864619 220.744792,18.9062473 220.765625,19.4375 L220.9375,19.4375 C221.145834,19.0208313 221.406248,18.4739617 221.71875,17.796875 C222.031252,17.1197883 222.359373,16.5572939 222.703125,16.109375 C223.046877,15.6614561 223.437498,15.2838557 223.875,14.9765625 C224.312502,14.6692693 224.817705,14.515625 225.390625,14.515625 C225.588543,14.515625 225.781249,14.5494788 225.96875,14.6171875 C226.156251,14.6848962 226.320312,14.7812494 226.460938,14.90625 C226.601563,15.0312506 226.713541,15.1848949 226.796875,15.3671875 C226.880209,15.5494801 226.921875,15.7552072 226.921875,15.984375 C226.921875,16.1614592 226.895834,16.4088526 226.84375,16.7265625 C226.791666,17.0442724 226.708334,17.4583308 226.59375,17.96875 C226.479166,18.4791692 226.395834,18.8984359 226.34375,19.2265625 C226.291666,19.5546891 226.265625,19.8281239 226.265625,20.046875 C226.265625,20.4218769 226.302083,20.7343738 226.375,20.984375 C226.447917,21.2343762 226.54427,21.4348951 226.664063,21.5859375 C226.783855,21.7369799 226.91927,21.8437497 227.070313,21.90625 C227.221355,21.9687503 227.380208,22 227.546875,22 C228.015627,22 228.499998,21.8958344 229,21.6875 C229.500002,21.4791656 229.958331,21.244793 230.375,20.984375 C230.864586,20.6822902 231.343748,20.3385436 231.8125,19.953125 L231.578125,23.609375 C231.30729,23.7864592 231.000002,23.9843739 230.65625,24.203125 C230.312498,24.4218761 229.945314,24.6276032 229.554688,24.8203125 C229.164061,25.0130218 228.757815,25.1744785 228.335938,25.3046875 C227.91406,25.4348965 227.484377,25.5 227.046875,25.5 C226.265621,25.5 225.635419,25.3411474 225.15625,25.0234375 C224.677081,24.7057276 224.296876,24.2890651 224.015625,23.7734375 C223.734374,23.2578099 223.526042,22.6796907 223.390625,22.0390625 C223.255208,21.3984343 223.145834,20.7500033 223.0625,20.09375 L222.8125,20.09375 L220.015625,27.890625 C219.869791,28.296877 219.731771,28.6328112 219.601563,28.8984375 C219.471354,29.1640638 219.338542,29.3802075 219.203125,29.546875 C219.067708,29.7135425 218.921876,29.8307288 218.765625,29.8984375 C218.609374,29.9661462 218.437501,30 218.25,30 C217.822915,30 217.479168,29.9088551 217.21875,29.7265625 C216.958332,29.5442699 216.757813,29.2994807 216.617188,28.9921875 C216.476562,28.6848943 216.382813,28.3359395 216.335938,27.9453125 C216.289062,27.5546855 216.265625,27.1510437 216.265625,26.734375 Z M229.234375,24 C229.817711,23.4999975 230.291665,23.083335 230.65625,22.75 C231.020835,22.416665 231.385415,22.028648 231.75,21.5859375 C232.114585,21.143227 232.403645,20.7812514 232.617188,20.5 C232.83073,20.2187486 233.083332,19.8854186 233.375,19.5 C233.666668,19.1145814 234.020831,18.643232 234.4375,18.0859375 C234.854169,17.528643 235.39583,16.8333375 236.0625,16 C236.197917,15.8124991 236.348958,15.6302092 236.515625,15.453125 C236.682293,15.2760408 236.867186,15.1171882 237.070313,14.9765625 C237.273439,14.8359368 237.497395,14.7213546 237.742188,14.6328125 C237.98698,14.5442704 238.260415,14.5 238.5625,14.5 C239.062502,14.5 239.447915,14.554687 239.71875,14.6640625 C239.989585,14.773438 240.187499,14.9062492 240.3125,15.0625 C240.437501,15.2187508 240.510417,15.3828116 240.53125,15.5546875 C240.552083,15.7265634 240.5625,15.8749994 240.5625,16 C240.5625,16.2500013 240.463543,16.5260402 240.265625,16.828125 C240.067707,17.1302098 239.84896,17.4218736 239.609375,17.703125 C239.36979,17.9843764 239.14323,18.2421863 238.929688,18.4765625 C238.716145,18.7109387 238.59375,18.8854161 238.5625,19 C238.5625,19.3229183 238.585937,19.6171862 238.632813,19.8828125 C238.679688,20.1484388 238.742187,20.4088529 238.820313,20.6640625 C238.898438,20.9192721 238.979166,21.1901027 239.0625,21.4765625 C239.145834,21.7630223 239.226562,22.0937481 239.304688,22.46875 C239.382813,22.8437519 239.393229,23.3593717 239.335938,24.015625 C239.278646,24.6718783 239.25,25.33333 239.25,26 C239.625002,25.7499988 240.028644,25.5234385 240.460938,25.3203125 C240.893231,25.1171865 241.343748,24.9062511 241.8125,24.6875 C242.281252,24.4687489 242.763018,24.2265638 243.257813,23.9609375 C243.752607,23.6953112 244.249998,23.3750019 244.75,23 L244.765625,26.5 C244.119788,27.0000025 243.3724,27.4687478 242.523438,27.90625 C241.674475,28.3437522 240.783859,28.729165 239.851563,29.0625 C238.919266,29.395835 237.976567,29.6588532 237.023438,29.8515625 C236.070308,30.0442718 235.166671,30.140625 234.3125,30.140625 C233.697914,30.140625 233.125003,30.0833339 232.59375,29.96875 C232.062497,29.8541661 231.596356,29.6744804 231.195313,29.4296875 C230.794269,29.1848946 230.468751,28.8645853 230.21875,28.46875 C229.968749,28.0729147 229.817709,27.5937528 229.765625,27.03125 C229.619791,27.0625002 229.476563,27.0833333 229.335938,27.09375 C229.195312,27.1041667 229.057292,27.109375 228.921875,27.109375 C228.755208,27.109375 228.598959,27.1041667 228.453125,27.09375 C228.307291,27.0833333 228.182292,27.0442712 228.078125,26.9765625 C227.973958,26.9088538 227.890625,26.7994799 227.828125,26.6484375 C227.765625,26.4973951 227.734375,26.2812514 227.734375,26 C227.734375,25.7499988 227.796874,25.5182302 227.921875,25.3046875 C228.046876,25.0911448 228.192708,24.9010425 228.359375,24.734375 C228.526043,24.5677075 228.692708,24.4218756 228.859375,24.296875 C229.026043,24.1718744 229.151041,24.072917 229.234375,24 Z M231.234375,26 C231.359376,26 231.497395,26.0781242 231.648438,26.234375 C231.79948,26.3906258 231.973957,26.5624991 232.171875,26.75 C232.369793,26.9375009 232.598957,27.1093742 232.859375,27.265625 C233.119793,27.4218758 233.416665,27.5 233.75,27.5 C234.156252,27.5 234.492186,27.4322923 234.757813,27.296875 C235.023439,27.1614577 235.234374,26.981772 235.390625,26.7578125 C235.546876,26.533853 235.65625,26.273439 235.71875,25.9765625 C235.78125,25.679686 235.8125,25.3697933 235.8125,25.046875 C235.8125,24.7656236 235.794271,24.4791681 235.757813,24.1875 C235.721354,23.8958319 235.726562,23.5338563 235.773438,23.1015625 C235.820313,22.6692687 235.809896,22.3359387 235.742188,22.1015625 C235.674479,21.8671863 235.614584,21.6666675 235.5625,21.5 L231.234375,26 Z" fill="#3E4454"></path>
</svg>